<svg id="Layer_1" data-name="Layer 1" xmlns="http://www.w3.org/2000/svg" viewBox="0 0 536.96 936.25"><defs><style>.cls-1{fill:#ea4207;}.cls-2{fill:#f99e19;}.cls-3{fill:#ff0;}.cls-4{fill:#b3b3b3;}.cls-5{fill:gray;stroke:gray;stroke-miterlimit:10;stroke-width:3.99px;}.cls-6{fill:#44cbea;}</style></defs><title>rocketship</title><path class="cls-1" d="M696.38,1018.59c2.47,3.83,6.13,19.23,13.45,50,5.31,22.35,4.88,29.59,1.85,37.23-4.68,11.75-21,19.38-30.44,10.93a413.31,413.31,0,0,1,34.26,49.67c8.08,13.77,15.11,32.13,5.18,44.64-7.2,9.07-20.83,11.07-28,20.19-10.19,13-2.05,31.8,6.27,46.08-14.41,4.47-28.11-9.51-33.61-23.56s-7.43-30.21-17.77-41.19c-11.75,13.37-14.18,33-10.61,50.41s12.38,33.29,21.07,48.82c-20.32-.31-39.31-11.53-53-26.52s-22.89-33.54-31.12-52.12q-13.11-29.58-23.69-60.18a65.1,65.1,0,0,1-25.05,30c-1.68,1.07-3.55,2.09-5.52,1.9-3.53-.34-5.68-4.34-6.47-5.76-51.48-92.46-39.67-129.42-39.67-129.42C500.83,984.22,669.74,977.29,696.38,1018.59Z" transform="translate(-329.16 -375.58)"/><path class="cls-2" d="M510.26,1036.56c-18.58,40.56,8.67,92.57,12.2,99.32a137.62,137.62,0,0,0,11.18,17.87A72,72,0,0,0,548,1118.44c.46-4.12.87-8.85,4.44-11.37,4.3-3,10.81-.63,13.55,3.55s2.78,9.44,2.81,14.4c.09,16.91.94,34,5.89,50.12s14.35,31.44,28.88,41.16c3.27,2.19,7.09,4.15,11.15,3.75,6.22-.62,10.58-6.7,11.24-12.52s-1.37-11.49-2.86-17.13a94.44,94.44,0,0,1-2.72-32.65,167.5,167.5,0,0,1,35.94,47.92c2.24,4.52,4.33,9.23,7.89,12.93s9,6.27,14.25,5.18c4.22-.87,7.65-3.9,10-7.29,6.36-9,6.54-20.75,3.48-31s-9-19.37-14.29-28.7c-15.71-27.66-26.21-57.69-36.63-87.55,14.19,3.33,17.67,21.58,30.43,28.14a9.15,9.15,0,0,0,6,1.19c3.88-.83,5.71-5,6.61-8.62,4.57-18.57-5.85-49-5.85-49-8.51-22.13-12.77-33.2-19.76-40.12C627.26,970,534.43,983.76,510.26,1036.56Z" transform="translate(-329.16 -375.58)"/><path class="cls-3" d="M645.29,1020.62c4.62,6.4,5.65,18.7,0,23.17-4.57,3.62-13.41,2-22-3.86-3.68,6.32-3,14.29-1,21.32s5.31,13.71,6.57,20.92a39.26,39.26,0,0,1-11.16,34.35,378.75,378.75,0,0,0-11-41.1,103.53,103.53,0,0,0-5.49,63.44c-4.5-1.28-6.88-6.07-8.69-10.38a715.45,715.45,0,0,1-27-76.43,61.87,61.87,0,0,0-24.46,32.24c-8.75-9.14-16.36-20.56-14.41-31.9C532.75,1017.28,628,996.67,645.29,1020.62Z" transform="translate(-329.16 -375.58)"/><path class="cls-3" d="M644,1021.38a21,21,0,0,1,3.3,15.84c-.49,2.26-1.5,4.57-3.55,5.82-2.34,1.41-5.32,1.36-7.91.85a32.67,32.67,0,0,1-11.78-5.26,1.54,1.54,0,0,0-2.06.54c-5.68,10-1.6,21.6,2,31.58,1.88,5.19,3.65,10.47,3.91,16a38.34,38.34,0,0,1-2.23,14.63,37.22,37.22,0,0,1-9,14l2.51.66a379.36,379.36,0,0,0-11-41.1,1.51,1.51,0,0,0-2.89,0,105,105,0,0,0-7.77,50,107.58,107.58,0,0,0,2.28,14.27l1.85-1.85c-4.72-1.45-6.67-7-8.39-11.11q-3.7-8.92-7.17-17.93-6.84-17.8-12.73-36-3.36-10.34-6.39-20.76a1.51,1.51,0,0,0-2.2-.9,63.89,63.89,0,0,0-25.16,33.14l2.51-.66c-6.36-6.67-12.77-14.8-14.08-24.21a21.64,21.64,0,0,1,3.25-14.44c5-8.2,13.65-13.89,22-18.23a131.31,131.31,0,0,1,33.18-11.54A119.07,119.07,0,0,1,620,1012a55.18,55.18,0,0,1,13.42,2.49,23.58,23.58,0,0,1,9.15,5.22,16.74,16.74,0,0,1,1.45,1.65c1.12,1.54,3.73,0,2.59-1.52-5.09-7-14.3-9.36-22.42-10.42-11.3-1.47-22.93-.44-34.09,1.61a139.81,139.81,0,0,0-35.31,11.25c-9.28,4.45-18.59,10.33-24.71,18.8a26.4,26.4,0,0,0-5,12.66c-1,9.65,4.28,18.75,10.09,26,1.56,1.94,3.22,3.8,4.93,5.6a1.51,1.51,0,0,0,2.51-.66,60.62,60.62,0,0,1,23.78-31.35l-2.2-.89a715.18,715.18,0,0,0,26.48,75.09c2.12,5.09,4.54,11,10.29,12.76a1.51,1.51,0,0,0,1.84-1.84,102.41,102.41,0,0,1,.92-49.36,104.08,104.08,0,0,1,4.57-13.28h-2.89a381.67,381.67,0,0,1,11,41.1,1.51,1.51,0,0,0,2.51.66,41,41,0,0,0,12.09-26.93,44,44,0,0,0-2.28-15.73c-1.76-5.51-4.14-10.84-5.47-16.49-1.38-5.87-1.61-12.34,1.45-17.74l-2.06.54c5.92,4,14.74,8.15,21.86,4.85,5.87-2.72,6.77-10.28,6-16a23.25,23.25,0,0,0-3.8-10.26C645.48,1018.3,642.88,1019.8,644,1021.38Z" transform="translate(-329.16 -375.58)"/><path class="cls-4" d="M705,1030.27c-37.75-10.14-79.55-11.28-121.65-1.44s-79,29.39-108.35,55.2c-75.77-153-176.63-423.8-73.33-678.76,6.92-17.1,14.5-25.37,29.11-28.79h0c20.9-2.84,25.12.91,38.92,13.16C675.2,572.25,705,859.54,705,1030.27Z" transform="translate(-329.16 -375.58)"/><path class="cls-5" d="M472.31,1065.55c5.62,16.47-2,34.42-15.27,36l-7.67.92c-26.15,3.11-50.16,15.38-66.87,34.18l-27.6,31c-9.65,10.86-25.17-.83-23.64-17.79l19.25-212.83L362.9,805.55c1.28-13.62,15.51-15.32,19.92-2.37l42.63,125Z" transform="translate(-329.16 -375.58)"/><path class="cls-5" d="M696.68,1012.75c2.27,17.25,17.05,30,29.65,25.49l7.28-2.58c24.82-8.81,51.78-8.45,75.1,1l38.51,15.59c13.46,5.45,22.19-11.91,13.29-26.43L748.87,843.58,679.43,731.19c-7.19-11.64-20.69-6.85-18.91,6.71l17.22,130.92Z" transform="translate(-329.16 -375.58)"/><path class="cls-6" d="M432.74,581c-9.31,11.57-19.73,9.22-23.15-5.23l-5.7-24c-3.42-14.45,1.39-35.74,10.7-47.31,0,0,6.89-8.57,42.89-17.1s46-4,46-4c13.51,6.16,27.36,23,30.79,37.48l5.69,24c3.43,14.45-4.82,21.23-18.34,15.07,0,0-10-4.56-46,4S432.74,581,432.74,581Z" transform="translate(-329.16 -375.58)"/></svg>