<svg id="Layer_1" data-name="Layer 1" xmlns="http://www.w3.org/2000/svg" xmlns:xlink="http://www.w3.org/1999/xlink" viewBox="0 0 1135.71 615"><defs><style>.cls-1,.cls-7{stroke:#000;}.cls-1,.cls-4,.cls-5,.cls-7{stroke-miterlimit:10;}.cls-1{stroke-width:4px;fill:url(#linear-gradient);}.cls-2{fill:url(#linear-gradient-2);}.cls-3{fill:url(#linear-gradient-3);}.cls-4,.cls-5{fill:none;}.cls-4{stroke-width:35px;opacity:0.42;stroke:url(#linear-gradient-4);}.cls-5{stroke-width:52.2px;opacity:0.45;stroke:url(#linear-gradient-5);}.cls-6{fill:#bf9c20;}.cls-7{stroke-width:2px;fill:url(#linear-gradient-6);}.cls-8{fill:url(#linear-gradient-7);}.cls-9{fill:url(#linear-gradient-8);}.cls-10{fill:#806815;}</style><linearGradient id="linear-gradient" x1="482.63" y1="770.92" x2="1028.73" y2="770.92" gradientUnits="userSpaceOnUse"><stop offset="0" stop-color="#aa7100"/><stop offset="0" stop-color="#ac7301"/><stop offset="0" stop-color="#b37b05"/><stop offset="0" stop-color="#bf890a"/><stop offset="0" stop-color="#d09c13"/><stop offset="0" stop-color="#e6b41e"/><stop offset="0" stop-color="#ffd02a"/><stop offset="0.25" stop-color="#ffd02c" stop-opacity="0.99"/><stop offset="0.39" stop-color="#ffd233" stop-opacity="0.96"/><stop offset="0.5" stop-color="#ffd43e" stop-opacity="0.91"/><stop offset="0.59" stop-color="#ffd84e" stop-opacity="0.83"/><stop offset="0.68" stop-color="#ffdd64" stop-opacity="0.73"/><stop offset="0.76" stop-color="#ffe27e" stop-opacity="0.61"/><stop offset="0.83" stop-color="#ffe99d" stop-opacity="0.46"/><stop offset="0.9" stop-color="#fff1c1" stop-opacity="0.29"/><stop offset="0.97" stop-color="#fffae8" stop-opacity="0.11"/><stop offset="1" stop-color="#fff" stop-opacity="0"/></linearGradient><linearGradient id="linear-gradient-2" x1="483.54" y1="763.24" x2="1029.73" y2="763.24" gradientUnits="userSpaceOnUse"><stop offset="0" stop-color="#aa7100"/><stop offset="0" stop-color="#ab7303" stop-opacity="0.99"/><stop offset="0" stop-color="#ac780e" stop-opacity="0.97"/><stop offset="0" stop-color="#b08121" stop-opacity="0.93"/><stop offset="0" stop-color="#b48e3c" stop-opacity="0.88"/><stop offset="0" stop-color="#ba9f5f" stop-opacity="0.81"/><stop offset="0" stop-color="#c1b38a" stop-opacity="0.72"/><stop offset="0" stop-color="#c2b68f" stop-opacity="0.71"/><stop offset="0.3" stop-color="#c3b791" stop-opacity="0.7"/><stop offset="0.46" stop-color="#c7bc97" stop-opacity="0.66"/><stop offset="0.6" stop-color="#cdc3a3" stop-opacity="0.59"/><stop offset="0.71" stop-color="#d5cdb2" stop-opacity="0.49"/><stop offset="0.81" stop-color="#e1dbc7" stop-opacity="0.35"/><stop offset="0.91" stop-color="#eeebe0" stop-opacity="0.2"/><stop offset="1" stop-color="#fefefd" stop-opacity="0.01"/><stop offset="1" stop-color="#fff" stop-opacity="0"/></linearGradient><linearGradient id="linear-gradient-3" x1="474.81" y1="477.68" x2="1088" y2="477.68" gradientUnits="userSpaceOnUse"><stop offset="0" stop-color="#aa7100"/><stop offset="0" stop-color="#ac7301"/><stop offset="0" stop-color="#b37b05"/><stop offset="0" stop-color="#bf890a"/><stop offset="0" stop-color="#d09c13"/><stop offset="0" stop-color="#e6b41e"/><stop offset="0" stop-color="#ffd02a"/><stop offset="0.18" stop-color="#ffd12d" stop-opacity="0.99"/><stop offset="0.31" stop-color="#ffd235" stop-opacity="0.95"/><stop offset="0.42" stop-color="#ffd542" stop-opacity="0.89"/><stop offset="0.53" stop-color="#ffda55" stop-opacity="0.8"/><stop offset="0.64" stop-color="#ffdf6e" stop-opacity="0.68"/><stop offset="0.74" stop-color="#ffe68c" stop-opacity="0.54"/><stop offset="0.83" stop-color="#ffeeb0" stop-opacity="0.37"/><stop offset="0.93" stop-color="#fff7d9" stop-opacity="0.18"/><stop offset="1" stop-color="#fff" stop-opacity="0"/></linearGradient><linearGradient id="linear-gradient-4" x1="493.29" y1="517.42" x2="1095.2" y2="517.42" gradientUnits="userSpaceOnUse"><stop offset="0" stop-color="#aa7100"/><stop offset="0" stop-color="#a87101"/><stop offset="0" stop-color="#a06f05"/><stop offset="0" stop-color="#926c0c"/><stop offset="0" stop-color="#806815"/><stop offset="0.43" stop-color="#826a18" stop-opacity="0.99"/><stop offset="0.58" stop-color="#897225" stop-opacity="0.93"/><stop offset="0.69" stop-color="#94803a" stop-opacity="0.84"/><stop offset="0.78" stop-color="#a59459" stop-opacity="0.71"/><stop offset="0.86" stop-color="#bbae82" stop-opacity="0.54"/><stop offset="0.92" stop-color="#d6ceb3" stop-opacity="0.32"/><stop offset="0.98" stop-color="#f5f3ed" stop-opacity="0.08"/><stop offset="1" stop-color="#fff" stop-opacity="0"/></linearGradient><linearGradient id="linear-gradient-5" x1="505.75" y1="415" x2="1044.97" y2="415" gradientTransform="matrix(1.03, 0.05, 0.05, 0.74, -25.36, 124.91)" gradientUnits="userSpaceOnUse"><stop offset="0" stop-color="#6a1a00"/><stop offset="0.09" stop-color="#6f2208"/><stop offset="0.22" stop-color="#7c3620"/><stop offset="0.39" stop-color="#925845"/><stop offset="0.59" stop-color="#b1877a"/><stop offset="0.8" stop-color="#d8c2bc"/><stop offset="1" stop-color="#fff"/></linearGradient><linearGradient id="linear-gradient-6" x1="689" y1="288" x2="689" y2="288" xlink:href="#linear-gradient-3"/><linearGradient id="linear-gradient-7" x1="657.51" y1="338.36" x2="1024.84" y2="338.36" gradientUnits="userSpaceOnUse"><stop offset="0" stop-color="#aa7100"/><stop offset="0" stop-color="#b37301" stop-opacity="0.97"/><stop offset="0" stop-color="#d37906" stop-opacity="0.88"/><stop offset="0" stop-color="#ff810c" stop-opacity="0.75"/><stop offset="0.2" stop-color="#ff8310" stop-opacity="0.74"/><stop offset="0.34" stop-color="#ff891c" stop-opacity="0.7"/><stop offset="0.48" stop-color="#ff9431" stop-opacity="0.64"/><stop offset="0.6" stop-color="#ffa34e" stop-opacity="0.55"/><stop offset="0.71" stop-color="#ffb773" stop-opacity="0.43"/><stop offset="0.83" stop-color="#ffcea1" stop-opacity="0.29"/><stop offset="0.93" stop-color="#ffead7" stop-opacity="0.12"/><stop offset="1" stop-color="#fff" stop-opacity="0"/></linearGradient><linearGradient id="linear-gradient-8" x1="484.63" y1="727.64" x2="1030.73" y2="727.64" gradientUnits="userSpaceOnUse"><stop offset="0" stop-color="#aa7100"/><stop offset="0" stop-color="#ac7203" stop-opacity="0.99"/><stop offset="0" stop-color="#b4760e" stop-opacity="0.96"/><stop offset="0" stop-color="#c17d20" stop-opacity="0.9"/><stop offset="0" stop-color="#d38639" stop-opacity="0.83"/><stop offset="0" stop-color="#e69053" stop-opacity="0.75"/><stop offset="0.01" stop-color="#e68c53" stop-opacity="0.75"/><stop offset="0.02" stop-color="#e67f53" stop-opacity="0.75"/><stop offset="0.03" stop-color="#e67353" stop-opacity="0.75"/><stop offset="0.22" stop-color="#e67656" stop-opacity="0.74"/><stop offset="0.37" stop-color="#e87e60" stop-opacity="0.69"/><stop offset="0.5" stop-color="#ea8b71" stop-opacity="0.62"/><stop offset="0.63" stop-color="#ee9e88" stop-opacity="0.52"/><stop offset="0.75" stop-color="#f2b7a6" stop-opacity="0.39"/><stop offset="0.87" stop-color="#f7d5cb" stop-opacity="0.23"/><stop offset="0.98" stop-color="#fef8f6" stop-opacity="0.04"/><stop offset="1" stop-color="#fff" stop-opacity="0"/></linearGradient></defs><title>saturn</title><path class="cls-1" d="M584.49,815.65a309.42,309.42,0,0,1-86.37-115.41,306.23,306.23,0,0,1-15.49-45.41c73.6,26.21,157.73,50,248,69.15,107.4,22.76,209.53,36,298.1,40.08a310.32,310.32,0,0,1-114.07,93.09,305.49,305.49,0,0,1-48.95,18.37,309.57,309.57,0,0,1-281.22-59.87" transform="translate(-194.3 -274)"/><path class="cls-2" d="M1029.73,761.83a310.41,310.41,0,0,1-114,93.19,306.48,306.48,0,0,1-48.94,18.41,1122.22,1122.22,0,0,1-161.56-25.18,1140.61,1140.61,0,0,1-119.71-34.46,309.39,309.39,0,0,1-86.46-115.34,305,305,0,0,1-15.53-45.39C557.16,679.21,641.31,702.94,731.6,722,839,744.67,941.16,757.8,1029.73,761.83Z" transform="translate(-194.3 -274)"/><path class="cls-3" d="M1068.08,679.36c-86.08,0-199.57-14-319.57-39.45-101.71-21.57-198.83-49.69-273.7-79.23a303,303,0,0,1,38.9-128.79c3.73-6.61,7.77-13.15,12-19.46a306.08,306.08,0,0,1,19.55-26.12c41.16-49.24,97-77.34,113.09-84.77,1.9-.89,2.95-1.33,3-1.34,9.32-3.94,18.92-7.46,28.55-10.45.45-.14,44.68-13.75,91.13-13.75,104.22,0,178.07,55.54,198.22,72.56,6.29,5.66,12.84,12.05,18.91,18.43a365.55,365.55,0,0,1,25.13,29c26.13,33.67,44.61,70.61,54.93,109.77a293.32,293.32,0,0,1,6.86,34.53c1,7,1.71,14,2.19,21,.5,7.2.76,14.52.76,21.76a306.69,306.69,0,0,1-15.42,96.35Z" transform="translate(-194.3 -274)"/><path d="M781,278c103.46,0,176.79,55.09,196.88,72.05,6.28,5.65,12.78,12,18.8,18.32a364.71,364.71,0,0,1,25,28.8c26,33.47,44.33,70.16,54.57,109.06a291.87,291.87,0,0,1,6.82,34.3c1,6.92,1.69,13.94,2.17,20.85.5,7.15.76,14.42.76,21.62a304.72,304.72,0,0,1-14.87,94.36h-3.05c-41.61,0-90-3.32-143.93-9.87C868.3,660.7,809.34,650.76,748.93,638c-101-21.42-197.44-49.3-272-78.6a301.21,301.21,0,0,1,38.54-126.49c3.71-6.56,7.72-13.06,11.93-19.33a303.11,303.11,0,0,1,19.42-26c17.62-21.08,40-40.72,66.62-58.36a355.94,355.94,0,0,1,45.77-25.88c1.86-.86,2.89-1.3,2.91-1.31,9.26-3.92,18.8-7.41,28.37-10.38.44-.14,44.4-13.66,90.53-13.66m0-4c-47.32,0-91.72,13.84-91.72,13.84-11.5,3.57-21.16,7.31-28.74,10.52,0,0-1.07.45-3,1.36-13.79,6.36-71.75,35-113.78,85.31a306.44,306.44,0,0,0-19.68,26.29q-6.4,9.54-12.08,19.58A307,307,0,0,0,472.71,562c72.65,28.79,168.68,57.24,275.39,79.87,123.83,26.25,237.7,39.49,320,39.49,2,0,4,0,6,0A308.73,308.73,0,0,0,1090,583q0-11-.77-21.9-.74-10.67-2.2-21.12a293.14,293.14,0,0,0-6.91-34.77c-12.79-48.57-36-85.67-55.28-110.49a369.44,369.44,0,0,0-25.26-29.11c-8.24-8.67-15.28-15.17-19.07-18.58-12.17-10.28-88.15-73-199.51-73Z" transform="translate(-194.3 -274)"/><path d="M464.76,430.73c14.17,0,29.43.4,45.37,1.19a306.1,306.1,0,0,0-38.42,128.49c-44.17-17.59-79.84-35.49-103.21-51.81-24.12-16.83-35.5-32.19-32.91-44.43,2.28-10.77,14.92-19.16,37.55-24.92,22.19-5.65,53-8.52,91.61-8.52h0m0-1.11c-76.23,0-125.38,11.38-130.24,34.32C328.92,490.3,383,526.42,472.71,562A307,307,0,0,1,512,430.9c-16.68-.85-32.45-1.28-47.22-1.28Z" transform="translate(-194.3 -274)"/><path d="M1090.46,562.85c35.69,15.7,63.11,30.89,81.53,45.16,19.07,14.78,27.56,27.83,25.24,38.81-2.22,10.48-14.27,18.71-35.81,24.46-20.83,5.56-49.71,8.57-85.85,8.94A309.88,309.88,0,0,0,1091.11,583c0-6.7-.22-13.47-.65-20.15m-1.23-1.75q.76,10.85.77,21.9a308.73,308.73,0,0,1-16,98.34c72.83-.59,119.55-12,124.28-34.29,5-23.37-37-54.42-109.08-85.95Z" transform="translate(-194.3 -274)"/><path d="M464.76,430.67c14.2,0,29.49.4,45.47,1.19A306.13,306.13,0,0,0,471.77,560.5c-44.22-17.6-79.92-35.52-103.31-51.84-24.14-16.85-35.53-32.24-32.93-44.5,2.29-10.8,14.94-19.2,37.59-25,22.2-5.66,53-8.52,91.63-8.52h0m0-1.05c-76.23,0-125.38,11.38-130.24,34.32C328.92,490.3,383,526.42,472.71,562A307,307,0,0,1,512,430.9c-16.68-.85-32.45-1.28-47.22-1.28Z" transform="translate(-194.3 -274)"/><path d="M1090.39,562.75c35.74,15.72,63.2,30.93,81.64,45.21,19.09,14.79,27.59,27.87,25.26,38.87-4.41,20.84-47.65,32.7-121.81,33.45A309.61,309.61,0,0,0,1091,583c0-6.74-.22-13.54-.65-20.25m-1.16-1.65q.76,10.85.77,21.9a308.73,308.73,0,0,1-16,98.34c72.83-.59,119.55-12,124.28-34.29,5-23.37-37-54.42-109.08-85.95Z" transform="translate(-194.3 -274)"/><path d="M464.76,430.71c14.18,0,29.45.4,45.41,1.19a306.15,306.15,0,0,0-38.44,128.54c-44.19-17.59-79.87-35.5-103.25-51.82-24.13-16.84-35.51-32.21-32.91-44.46,2.28-10.78,14.92-19.17,37.56-24.93,22.2-5.66,53-8.52,91.62-8.52h0m0-1.09c-76.23,0-125.38,11.38-130.24,34.32C328.92,490.3,383,526.42,472.71,562A307,307,0,0,1,512,430.9c-16.68-.85-32.45-1.28-47.22-1.28Z" transform="translate(-194.3 -274)"/><path d="M1090.43,562.81c35.71,15.71,63.15,30.91,81.57,45.18,19.08,14.79,27.58,27.85,25.25,38.84-2.22,10.49-14.27,18.72-35.82,24.47-20.84,5.57-49.73,8.57-85.89,8.94A309.67,309.67,0,0,0,1091.08,583c0-6.71-.21-13.5-.65-20.19m-1.2-1.71q.76,10.85.77,21.9a308.73,308.73,0,0,1-16,98.34c72.83-.59,119.55-12,124.28-34.29,5-23.37-37-54.42-109.08-85.95Z" transform="translate(-194.3 -274)"/><path class="cls-4" d="M501.86,454.61S758,598.5,1094,575.5" transform="translate(-194.3 -274)"/><path class="cls-5" d="M529.85,407.22s219.52,125.14,544.41,119.64" transform="translate(-194.3 -274)"/><path class="cls-6" d="M1087,721.5c-9.64,0-19.7-.15-29.92-.44-93.62-2.67-209.2-17.71-325.45-42.35-92.38-19.57-181.69-44.4-258.27-71.78-72-25.74-131-53.1-170.65-79.11-40.58-26.61-59.81-51.13-55.62-70.91,3.34-15.75,20.95-28,52.36-36.48C330.06,412.18,372.13,408,424.49,408c30,0,62.85,1.41,97.78,4.19-3.81,5.76-7.46,11.7-10.87,17.69-16.4-.83-32.09-1.25-46.65-1.25-46.23,0-124.75,4.56-131.22,35.11-2.82,13.32,8.53,29,33.76,46.6,23.75,16.58,60.08,34.77,105,52.6,75.2,29.8,173.06,58.18,275.55,79.92,120.2,25.48,233.91,39.51,320.19,39.51,2,0,4,0,6,0,37-.3,66.62-3.34,87.93-9,22.36-6,34.92-14.74,37.32-26.06,4.88-23-33.86-53.87-109.1-86.83-.45-6.26-1.1-12.6-1.94-18.88,57.12,23,103.34,47,133.75,69.22,31.46,23,46.14,44.39,42.45,61.8-3.34,15.75-21,28-52.38,36.49C1181.43,717.31,1139.34,721.5,1087,721.5Z" transform="translate(-194.3 -274)"/><path d="M424.49,409c29.45,0,61.74,1.36,96,4.05-3.38,5.16-6.62,10.46-9.67,15.8-16.19-.81-31.69-1.22-46.09-1.22-38.86,0-69.94,2.9-92.38,8.62-23.87,6.08-37.27,15.26-39.82,27.29-2.91,13.74,8.58,29.77,34.17,47.62C390.87,528,426.29,545.75,472,563.86c75.26,29.82,173.17,58.22,275.72,80,60.58,12.84,119.7,22.8,175.74,29.62,54.14,6.58,102.8,9.91,144.65,9.91,2,0,4,0,6,0,37.12-.3,66.79-3.35,88.17-9.06,22.77-6.07,35.57-15.1,38-26.82,2.59-12.24-6.28-26.34-26.38-41.91-18.71-14.5-46.55-29.9-82.75-45.8-.4-5.52-1-11.09-1.67-16.63,56.31,22.81,101.88,46.45,131.94,68.46,21.7,15.88,46.62,39.31,42.06,60.79C1257,703,1192.65,720.5,1087,720.5c-9.63,0-19.68-.15-29.89-.44-93.56-2.67-209.07-17.7-325.28-42.33C639.47,658.17,550.2,633.36,473.66,606,326.21,553.26,239.76,496.21,248,457.11c6.48-30.58,70.8-48.12,176.45-48.12m0-2c-103.33,0-171.41,16.68-178.41,49.71-8.87,41.89,82.7,99.6,226.91,151.17,74.33,26.58,162.65,51.53,258.4,71.82,121.3,25.71,234.74,39.78,325.63,42.37q15.42.44,30,.44c103.37,0,171.46-16.68,178.46-49.72,7.84-37-62.6-86.28-178.4-132.8q1.46,10.44,2.2,21.12c72.11,31.53,114,62.58,109.08,85.95-4.73,22.34-51.45,33.7-124.28,34.29-2,0-3.94,0-6,0-82.28,0-196.16-13.24-320-39.49C641.39,619.24,545.36,590.79,472.71,562c-89.74-35.58-143.79-71.7-138.2-98.06,4.86-22.95,54-34.32,130.24-34.32,14.76,0,30.55.43,47.22,1.28q5.67-10,12.08-19.58c-35.8-2.89-69.2-4.33-99.56-4.33Z" transform="translate(-194.3 -274)"/><path class="cls-7" d="M689,288" transform="translate(-194.3 -274)"/><path class="cls-8" d="M1024.84,398.72c-38.23,0-82.06-3.25-128.3-10.1C779,371.2,683,336,657.51,303.72c2-.91,3-1.36,3-1.36,7.58-3.21,17.24-6.95,28.74-10.52,0,0,44.4-13.84,91.72-13.84,111.36,0,187.34,62.75,199.51,73,3.79,3.41,10.83,9.91,19.07,18.58A369.44,369.44,0,0,1,1024.84,398.72Z" transform="translate(-194.3 -274)"/><path class="cls-9" d="M1030.73,763.06a309.89,309.89,0,0,1-34.35,38.39c-95.07-1.17-215.09-18.71-342.37-53C599.64,733.77,548,717.14,500.12,699.24a306.23,306.23,0,0,1-15.49-45.41c73.6,26.21,157.73,50,248,69.15C840,745.74,942.16,759,1030.73,763.06Z" transform="translate(-194.3 -274)"/><path class="cls-10" d="M1085.82,768.45c-18.55,0-38.07-.46-58-1.39C936.66,762.83,833.68,749,730,727,641.86,708.33,558.51,685.08,482.3,658c-90.45-32.22-165-68.06-215.63-103.63-51.44-36.15-75.46-70.22-69.46-98.51,4.85-22.89,29.82-41.65,72.21-54.25,41.54-12.35,100-18.88,169.05-18.88,31.75,0,65.8,1.36,101.27,4.05-5.91,7.25-11.51,14.8-16.7,22.5-35.21-2.81-68.36-4.24-98.55-4.24-109.3,0-173.35,18.22-180.37,51.3-8.85,41.83,76.45,99.2,228.2,153.46C549,637.18,638.47,662,731,681.65c116.43,24.67,232.2,39.74,326,42.41,10.25.29,20.35.44,30,.44,109.33,0,173.4-18.22,180.42-51.3,7.79-36.74-57.27-85.79-178.54-134.64-1.45-10.13-3.41-20.23-5.84-30.08,78.19,30.48,142.06,63.57,184.89,95.8,44.29,33.33,64.76,64.82,59.2,91.05-4.85,22.9-29.83,41.66-72.22,54.25C1213.34,761.93,1154.88,768.45,1085.82,768.45Z" transform="translate(-194.3 -274)"/><path d="M438.47,384.68c30.56,0,63.27,1.27,97.32,3.76-4.82,6.07-9.43,12.34-13.75,18.71-34.82-2.76-67.63-4.16-97.55-4.16-52.8,0-95.32,4.24-126.37,12.61-33.37,9-52.19,22.53-56,40.27-4.72,22.28,14.72,47.89,57.77,76.13,40,26.23,99.37,53.77,171.7,79.64C548.43,639.1,638,664,730.56,683.6,847.1,708.3,963,723.38,1056.91,726.06c10.26.29,20.37.44,30.06.44,52.81,0,95.35-4.24,126.41-12.61,33.37-9,52.2-22.54,56-40.28,4.19-19.76-10.74-42.26-44.38-66.88-30.65-22.42-77-46.47-134.3-69.6-1.25-8.53-2.87-17-4.81-25.39,158.57,62.31,250.09,132.24,239.3,183.18-2.35,11.06-9.55,21.15-21.41,30s-28.56,16.54-49.43,22.75c-41.36,12.29-99.62,18.78-168.49,18.78-18.52,0-38-.46-57.9-1.39-91.07-4.22-193.93-18-297.46-40-88.09-18.68-171.36-41.9-247.49-69C298.74,590.44,187.34,512,199.16,456.23c2.35-11.06,9.55-21.16,21.41-30s28.55-16.55,49.42-22.76c41.36-12.29,99.61-18.79,168.48-18.79m0-4c-138.42,0-232.81,25.65-243.22,74.72C182.47,515.69,300,595.12,481.63,659.83c73.6,26.21,157.73,50,248,69.15,107.4,22.76,209.53,36,298.1,40.08q30.15,1.4,58.09,1.39c138.43,0,232.83-25.63,243.24-74.7,11.88-56-88.79-128.62-248.94-190.54A306.76,306.76,0,0,1,1087,540c115.8,46.52,186.24,95.83,178.4,132.8-7,33-75.08,49.72-178.46,49.72q-14.52,0-30-.44c-90.89-2.59-204.33-16.66-325.63-42.37C635.64,659.4,547.32,634.45,473,607.87,328.78,556.3,237.21,498.59,246.08,456.7c7-33,75.06-49.71,178.41-49.71,30.36,0,63.77,1.44,99.56,4.33A306.44,306.44,0,0,1,543.73,385c-37.2-2.91-72.47-4.35-105.26-4.35Z" transform="translate(-194.3 -274)"/></svg>