<svg id="Layer_1" data-name="Layer 1" xmlns="http://www.w3.org/2000/svg" viewBox="0 0 301 301"><defs><style>.cls-1,.cls-2,.cls-3,.cls-4{fill:#dd789c;}.cls-1,.cls-3,.cls-4{stroke:#dd789c;stroke-miterlimit:10;}.cls-3{stroke-width:5px;}.cls-4{stroke-width:2.53px;}</style></defs><title>github-icon2-pink</title><path class="cls-1" d="M648.86,811H431.14A41.26,41.26,0,0,0,390,852.14v217.72A41.26,41.26,0,0,0,431.14,1111H648.86A41.26,41.26,0,0,0,690,1069.86V852.14A41.26,41.26,0,0,0,648.86,811Zm-84.15,252.08A105,105,0,1,1,645,961,105.39,105.39,0,0,1,564.71,1063.08Z" transform="translate(-389.5 -810.5)"/><path class="cls-2" d="M512.34,1027.09a136.13,136.13,0,0,1-13.7.47c-2.28,0-4.57-.14-6.85-.3-1.14-.08-2.28-.17-3.42-.28l-1.95-.2-1-.11c-.55-.07-.65-.08-.28,0a10,10,0,0,0-1-.2l-.78-.24c.4.17.47.18.19,0s-.22-.12.18.18a6.77,6.77,0,0,1-.56-.51c-.09-.09-1-1.14-.62-.68.21.26.17.22-.1-.14l-.51-.71-1-1.41-2-2.82-8.28-11.46c-1.41-2-4.09-3.1-6.33-1.66-2,1.25-3.18,4.24-1.67,6.34l8.72,12.06c2.93,4.06,5.6,9.06,11,10.08a95.64,95.64,0,0,0,15.12,1.3,137.54,137.54,0,0,0,14.92-.44c2.41-.21,4.75-2,4.64-4.64-.11-2.33-2.05-4.85-4.64-4.63Z" transform="translate(-389.5 -810.5)"/><path class="cls-3" d="M590.8,936.16v8.1a34,34,0,0,1-33.93,33.93H523.13a34,34,0,0,1-33.93-33.93v-8.1a33.82,33.82,0,0,1,10.08-24.08,2.67,2.67,0,0,1-.23-1.62l3.58-21.89a2.74,2.74,0,0,1,4.44-1.67l17.17,14a2.72,2.72,0,0,1,.87,1.28h30.76a2.65,2.65,0,0,1,1-1.76l17.16-14a2.74,2.74,0,0,1,4.44,1.68L582,910a2.66,2.66,0,0,1-.91,2.5A33.81,33.81,0,0,1,590.8,936.16Z" transform="translate(-389.5 -810.5)"/><path class="cls-4" d="M564.71,1004.24v57.3a106,106,0,0,1-49.42,0v-57.3a24.71,24.71,0,0,1,49.42,0Z" transform="translate(-389.5 -810.5)"/></svg>