<svg id="Layer_1" data-name="Layer 1" xmlns="http://www.w3.org/2000/svg" viewBox="0 0 301 301"><defs><style>.cls-1,.cls-2,.cls-3,.cls-4{stroke:#000;stroke-miterlimit:10;}.cls-2{fill:#fff;stroke-width:8.65px;}.cls-3{stroke-width:5px;}.cls-4{stroke-width:2.53px;}</style></defs><title>github-icon2</title><rect class="cls-1" x="0.5" y="0.5" width="300" height="300" rx="41.14"/><path class="cls-2" d="M540,855A105,105,0,1,0,645,960,105,105,0,0,0,540,855Zm50.8,90.83a34,34,0,0,1-33.93,33.93H523.13a34,34,0,0,1-33.93-33.93v-8.1a33.82,33.82,0,0,1,10.08-24.08,2.67,2.67,0,0,1-.23-1.62l3.58-21.89a2.74,2.74,0,0,1,4.44-1.67l17.17,14a2.72,2.72,0,0,1,.87,1.28h30.76a2.65,2.65,0,0,1,1-1.76L574,888a2.74,2.74,0,0,1,4.44,1.68L582,911.56a2.66,2.66,0,0,1-.91,2.5,33.81,33.81,0,0,1,9.68,23.67Z" transform="translate(-389.5 -809.5)"/><path d="M512.34,1019.09a136.13,136.13,0,0,1-13.7.47c-2.28,0-4.57-.14-6.85-.3-1.14-.08-2.28-.17-3.42-.28l-1.95-.2-1-.11c-.55-.07-.65-.08-.28,0a10,10,0,0,0-1-.2l-.78-.24c.4.17.47.18.19,0s-.22-.12.18.18a6.77,6.77,0,0,1-.56-.51c-.09-.09-1-1.14-.62-.68.21.26.17.22-.1-.14l-.51-.71-1-1.41-2-2.82-8.28-11.46c-1.41-2-4.09-3.1-6.33-1.66-2,1.25-3.18,4.24-1.67,6.34l8.72,12.06c2.93,4.06,5.6,9.06,11,10.08a95.64,95.64,0,0,0,15.12,1.3,137.54,137.54,0,0,0,14.92-.44c2.41-.21,4.75-2,4.64-4.64-.11-2.33-2.05-4.85-4.64-4.63Z" transform="translate(-389.5 -809.5)"/><path class="cls-3" d="M590.8,937.73v8.1a34,34,0,0,1-33.93,33.93H523.13a34,34,0,0,1-33.93-33.93v-8.1a33.82,33.82,0,0,1,10.08-24.08,2.67,2.67,0,0,1-.23-1.62l3.58-21.89a2.74,2.74,0,0,1,4.44-1.67l17.17,14a2.72,2.72,0,0,1,.87,1.28h30.76a2.65,2.65,0,0,1,1-1.76L574,888a2.74,2.74,0,0,1,4.44,1.68L582,911.56a2.66,2.66,0,0,1-.91,2.5A33.81,33.81,0,0,1,590.8,937.73Z" transform="translate(-389.5 -809.5)"/><path class="cls-4" d="M564.71,1004.78v57.3a106,106,0,0,1-49.42,0v-57.3a24.71,24.71,0,0,1,49.42,0Z" transform="translate(-389.5 -809.5)"/></svg>