<svg id="Layer_1" data-name="Layer 1" xmlns="http://www.w3.org/2000/svg" xmlns:xlink="http://www.w3.org/1999/xlink" viewBox="0 0 984.13 960.72"><defs><style>.cls-1{fill:url(#linear-gradient);}.cls-2{fill:#006837;}.cls-3{fill:#e6e6e6;}</style><linearGradient id="linear-gradient" x1="447.65" y1="553.3" x2="1428.65" y2="553.3" gradientTransform="translate(1491.35 -384.7) rotate(90)" gradientUnits="userSpaceOnUse"><stop offset="0.01" stop-color="#005b97"/><stop offset="0.02" stop-color="#005f9d"/><stop offset="0.06" stop-color="#006bb0"/><stop offset="0.11" stop-color="#0073ba"/><stop offset="0.16" stop-color="#0075be"/><stop offset="0.27" stop-color="#0a82c6"/><stop offset="0.48" stop-color="#1995d3"/><stop offset="0.62" stop-color="#1e9cd7"/><stop offset="0.67" stop-color="#2aa1d9"/><stop offset="0.75" stop-color="#4badde"/><stop offset="0.86" stop-color="#7fc2e7"/><stop offset="0.99" stop-color="#c7def3"/><stop offset="1" stop-color="#cce0f4"/></linearGradient></defs><title>earth</title><ellipse class="cls-1" cx="938.04" cy="553.45" rx="478" ry="490.5" transform="translate(-115.51 1384.25) rotate(-86.64)"/><path class="cls-2" d="M896.55,87.46c15.72,12.92,22.39,49.1,11.23,76.24-7.5,18.26-17.51,22.32-23.85,43.37-5.12,17,.62,34.61,3,51.93A134.65,134.65,0,0,1,883,313.66c-1,3.56-5.95,5-9.2,2.71-9.56-6.8-26.14-6.72-37.34-.43-14.28,8-21.83,22.22-28.64,35.65-1.56,3.09-3.15,6.3-3,9.65.18,5.38,4.62,9.79,8.82,13.72L842.56,402c5.06,4.73,10.31,9.58,17.13,12.22,10.19,3.93,22,2.31,33.17,1.15,36.26-3.77,74.18-1.5,106.75,12.24S1058.54,467.87,1063,499c2.42,16.77-1.42,33.78-5.66,50.37-3.56,13.93-8,28.69-20.09,38.51-10.93,8.85-27.19,12.8-35.12,23.77-10.51,14.54-1.28,33.73-6.71,50.16-4.53,13.73-18.5,23.52-26.84,35.89C952,722.27,959.67,753,969.1,780c9,25.7,21.29,53.35,49.18,65.65a10.78,10.78,0,0,1,3.09,1.94c6.16,5.83-3.51,12.76-11.59,13.92-34,4.91-63-19.19-85.6-41.23-28.7-28-58.2-57.12-70.42-93-10.53-31-7.39-64.81-20.17-95.1-9.89-23.44-28.66-43.15-41.94-65.29S771,517.13,784.92,495c11.46-18.23,36.1-30.9,39-51.39,3.11-21.67-19.86-38.85-41.85-49.39a357.33,357.33,0,0,0-88.39-28.73c-6.89-1.29-14-2.43-20.05-5.46-19.76-9.83-23.41-36.26-44.78-43.23l7.83,15.71c10.12,15.93,12.36,22.7,10.23,24.12-3.09,2.05-16-8.55-42.28-30.58-38.3-32.07-57.47-48.16-58.41-50.71C523.71,214,837.52,38.94,896.55,87.46Z" transform="translate(-446 -73.15)"/><path class="cls-2" d="M895.46,88.55C905.08,96.7,909.28,110,911,122.11c2.07,14.85.39,30.56-6,44.21-5.43,11.57-14.7,20.71-19.7,32.53a59.21,59.21,0,0,0-4.92,23.93c.09,8.68,1.77,17.26,3.31,25.77,3.39,18.78,4,37.43,0,56.18-.79,3.68-1.17,11.21-6.21,11.21-2.94,0-6.34-3.1-9.18-4.13A39.72,39.72,0,0,0,849,310.2c-14.08,2.11-24.88,11.63-32.62,23.12A153.4,153.4,0,0,0,805.93,352c-3.23,6.63-3.53,12.42,1.18,18.4,5.15,6.55,12.15,12,18.22,17.64,6.57,6.15,13,12.44,19.76,18.42,5.6,5,11.76,9.15,19.2,10.77,7.61,1.66,15.49,1.06,23.17.29,34.57-3.49,69.79-3.42,103,8.24,27.64,9.7,54.46,28.71,66.26,56.38,6.9,16.22,6.4,33.6,3,50.61-3,15-6.27,31.86-15,44.72s-23.26,16.74-35.37,25.28c-5,3.55-9.24,8-11.58,13.73-2.73,6.77-2.62,14.19-2.32,21.36.33,7.65,1,15.55-1.29,23s-7.45,13.56-12.58,19.24c-10.17,11.27-19.63,21.91-22.81,37.26-3.07,14.87-.76,30.29,3.12,44.78a251.15,251.15,0,0,0,14.24,39.77c5.57,12.13,12.76,23.77,22.69,32.83A69.16,69.16,0,0,0,1015.36,846c3.55,1.72,8.63,4.11,5.09,8.56-2.33,2.92-6.52,4.59-10.07,5.3-31.41,6.31-60.63-17.3-81.71-37.39-23.47-22.37-47.85-45.77-63.83-74.33-8.15-14.58-12.93-30.2-15.67-46.64-2.82-16.91-4-34.09-8-50.8-3.86-16.15-11-30.58-20.27-44.3-9.14-13.55-19.52-26.27-27.92-40.31S778.25,535.73,779,519.14c.77-16.25,9.61-28.22,20.76-39.21,8.67-8.55,18.76-17,23.55-28.51s1.74-23.64-5.82-33.26c-8.88-11.31-21.86-19.16-34.64-25.32a347.87,347.87,0,0,0-47.35-18.59q-12.88-4-26-7.07c-8.3-1.93-16.74-3.19-25-5.14-7.64-1.81-14.24-5-19.78-10.61-4.42-4.49-7.9-9.77-11.48-14.91-6.3-9-13.16-17.55-23.92-21.26-1.36-.47-2.3,1.15-1.74,2.27l5.7,11.44c2.62,5.25,5.88,10.09,8.68,15.25a47.93,47.93,0,0,1,3.55,7.62c.23.67.76,3.39.75,3.4-1.46.93-6.14-2.84-7.25-3.6-14.15-9.68-27-21.51-40.12-32.5-12.44-10.43-24.92-20.81-37.21-31.42-3.35-2.89-6.7-5.79-9.93-8.81-1.33-1.23-3.26-2.8-4.05-4.22-1.64-2.95-1.13-8.77-.17-12.51,3.19-12.42,12.32-23.19,20.86-32.36C581.23,216,595.94,203.9,611,192.62A643.09,643.09,0,0,1,668,155c40.25-23.85,82.77-44.86,127.15-59.84,17.72-6,36-11.16,54.58-13.45,12.78-1.58,27.33-2.4,39.39,3a29.06,29.06,0,0,1,6.34,3.84c1.53,1.24,3.73-.93,2.18-2.18-9.89-8-23.67-9.2-35.92-8.77-18.35.65-36.55,5-54.06,10.29-46.07,13.82-90.17,35-131.8,58.92a672.71,672.71,0,0,0-61.13,39.29c-16.25,11.81-32.09,24.46-46.07,38.93-9.47,9.8-19.35,21.14-23.56,34.38a26.59,26.59,0,0,0-.9,14.41c1.27,5.09,6.81,8.67,10.52,11.94,11.32,10,22.93,19.6,34.49,29.29,14.6,12.24,29,24.94,44.22,36.37,2.33,1.75,13.67,11.4,15.66,4.57,1.11-3.83-2.36-9.31-4-12.43-2.9-5.49-6.38-10.6-9.15-16.15L630.22,316l-1.74,2.27c12.58,4.33,19.14,16,26.5,26.16,3.44,4.77,7.16,9.39,11.82,13,5.76,4.49,12.52,6.71,19.6,8.18,17.68,3.68,35.15,7.31,52.36,12.9,16.55,5.38,33.06,11.76,48.43,20,12.61,6.72,26.32,15.78,32.67,29.1,6.56,13.75.21,26.83-9.27,37.21-8.94,9.8-19.87,18-27,29.4-8.15,13-9.2,28.66-5.83,43.34,7.42,32.38,33,55.58,48.77,83.75,8.64,15.47,12.73,32.32,15.28,49.72,2.53,17.19,3.94,34.64,8.81,51.38,9,30.9,30.19,56.24,52.23,78.88,21,21.56,43.38,46,72,57.26,12.22,4.81,29.33,8.31,41.8,2.46,4-1.86,9.24-5.77,8.06-10.85-.55-2.36-2.5-4.13-4.53-5.29-3.38-1.93-7-3.34-10.27-5.46-24.34-15.6-35.31-45.49-43.29-71.92-4.71-15.6-8.2-32.47-5-48.72a55.65,55.65,0,0,1,9.69-22.21c4.69-6.4,10.51-11.86,15.62-17.91,4.42-5.21,8.46-10.92,10.38-17.56,2.06-7.14,1.6-14.68,1.27-22-.34-7.69-.75-15.87,2.74-23,3.33-6.8,9.68-11.09,16.1-14.68,6-3.37,12.37-6.23,18-10.21a47.54,47.54,0,0,0,13.76-15.09c7.85-13.48,11.24-30.31,14-45.48,2.91-15.92,3.16-32.22-2.83-47.47-5-12.66-13.19-23.82-23.07-33.07-22.74-21.31-53-32-83.54-35.93a257.18,257.18,0,0,0-52.63-1c-8.63.67-17.25,2.09-25.91,2.09-9.47,0-17.75-2.53-25.15-8.51-7-5.62-13.27-12.13-19.8-18.23s-13.6-11.89-19.55-18.53c-3.47-3.87-5.37-8-3.56-13.18,1.33-3.78,3.51-7.41,5.4-10.94,3.55-6.66,7.49-13.21,12.6-18.8,10.48-11.46,26.51-17.69,41.75-12.39,5,1.74,9.7,6.84,15.07,2.95,2.52-1.83,2.93-4.88,3.63-7.73a138.87,138.87,0,0,0,2.74-14.31c2.48-18,.46-35.14-2.67-52.86C884,233,882.45,223,884.09,213.16a62.33,62.33,0,0,1,8.59-22c3.23-5.23,7.13-10,10.43-15.16a73.32,73.32,0,0,0,8.61-18.94,86.21,86.21,0,0,0,1.32-41c-2.25-10.85-6.73-22.34-15.4-29.68C896.14,85.1,893.94,87.27,895.46,88.55Z" transform="translate(-446 -73.15)"/><path class="cls-2" d="M1244.52,190.89a99.81,99.81,0,0,0-21.49,1.48c-12.58,2.42-29.27,4.28-36.85,17-6.58,11-7.44,25.38-15.93,34.92-2.84,3.2-6.43,5.69-8.92,9.18-2.86,4-4.06,9-4.84,13.87a101.34,101.34,0,0,0,2.42,42.73c1.57,5.66,3.66,11.25,4,17.13.35,5.36-.74,10.73-.68,16.1.2,17.37,12.14,32,24.64,43.6a229.16,229.16,0,0,0,71.16,44.85c3.37,1.33,7,2.6,10.54,1.75,3.19-.77,5.74-3.14,8.61-4.77,11.5-6.56,25.6-.65,37.33,5.28l19.17,9.69c4.52,2.28,9.13,4.63,12.63,8.34,6.44,6.82,8.05,16.94,9.35,26.38q4.21,30.68,8.45,61.35c1.07,7.82,2.17,15.71,4.91,23.08,2.46,6.62,6.2,12.66,8.66,19.29,4.35,11.78,4.59,37,6.51,48.1,3.2,18.54,19,37.55,26.84,36.13,18.35-3.31,28.2-123.42-.35-237.73C1369.86,265.11,1270.16,192.39,1244.52,190.89Z" transform="translate(-446 -73.15)"/><path class="cls-2" d="M1244.52,189.4c-9.4-.48-18.56.91-27.75,2.62s-18.94,3.84-26.3,10c-8.38,7.05-10.56,18.6-14.2,28.39-2.12,5.71-4.88,10.84-9.31,15.08s-8.18,7.91-10.14,13.77-2.61,12.53-2.92,18.77a103.39,103.39,0,0,0,1,20.12c1,6.82,3,13.29,4.82,19.91a42.42,42.42,0,0,1,1.81,10.89c0,3.59-.44,7.15-.65,10.73-1.42,24.54,18.07,43.13,35.55,57.43a232.3,232.3,0,0,0,31.4,21.66q8.17,4.69,16.72,8.71c5.5,2.58,11.24,5.45,17.11,7.05a14.22,14.22,0,0,0,8.07.16c2.82-.91,5.09-2.82,7.58-4.33,5.51-3.34,11.91-3.62,18.09-2.28,6.47,1.4,12.52,4.22,18.4,7.18q9.6,4.81,19.17,9.68c5.62,2.84,11.28,5.84,14.81,11.28,3.2,4.94,4.6,10.8,5.58,16.54,2.37,13.85,3.92,27.88,5.83,41.8q1.52,10.92,3,21.85a189.79,189.79,0,0,0,3.38,20.12c2.86,11.4,10.12,21,12.51,32.56,2.09,10.08,2.55,20.46,3.45,30.7a107,107,0,0,0,1.53,12.23,58.58,58.58,0,0,0,5.8,15.57c3.92,7.33,18.09,28.66,27.58,16.68,2.72-3.43,4.29-7.75,5.59-11.88a132.56,132.56,0,0,0,4.27-19.31c3-19,3.83-38.27,3.84-57.45A606.49,606.49,0,0,0,1410.28,421c-11.35-42.87-28.1-84.5-51-122.52-16.68-27.66-36.65-53.72-60.41-75.69a208,208,0,0,0-26.56-21.15c-6.44-4.26-13.3-8.26-20.65-10.72a28.37,28.37,0,0,0-7.11-1.52c-1.91-.12-1.91,2.86,0,3,5.15.32,11,3.06,15.84,5.61a148.31,148.31,0,0,1,23.31,15.64c22.41,17.88,41.55,39.86,58,63.27,23.32,33.2,41.35,70,54.61,108.31,16.79,48.5,26.1,99.54,29.53,150.69a541.14,541.14,0,0,1,.64,66.54c-.87,15.5-2.27,31.35-6.44,46.36-1.21,4.38-2.64,8.93-5.19,12.73-2.06,3.08-4.28,4.31-7.89,2.47s-6.62-5.09-9.16-8.22a61.56,61.56,0,0,1-8.58-14.32c-3.86-9-4.42-18.41-5.21-28s-1.34-19.19-3.79-28.39c-1.42-5.35-4-10.28-6.44-15.24a75.26,75.26,0,0,1-6.25-18.32c-2.74-13.8-4.1-28-6-41.89-1.82-13.26-3.09-26.74-5.67-39.88-1-5.22-2.55-10.49-5.47-15-3.19-4.93-7.9-8.19-13-10.88-6.18-3.26-12.46-6.32-18.69-9.47a137,137,0,0,0-16.29-7.38c-5.48-1.93-11.39-3.18-17.22-2.44a23.68,23.68,0,0,0-7.27,2.13c-2.56,1.22-4.7,3.11-7.21,4.4-6.16,3.16-13.68-1.31-19.38-3.8s-11.4-5.29-16.93-8.28a228.61,228.61,0,0,1-31.3-20.4c-9.38-7.28-18.6-15.2-26.17-24.38-7.44-9-13.23-19.9-13.11-31.85.06-6.74,1.32-13.25.06-20-1.2-6.39-3.61-12.49-5-18.86-2.78-13.16-3.23-27.73.06-40.85a25.39,25.39,0,0,1,3.25-7.87c1.85-2.8,4.49-4.93,6.89-7.23a38.62,38.62,0,0,0,8.88-13.34c4.06-9.72,5.65-21.84,13.7-29.31,7.11-6.58,17.32-8.51,26.53-10.21,8.73-1.61,17.42-2.85,26.35-2.39C1246.43,192.48,1246.42,189.5,1244.52,189.4Z" transform="translate(-446 -73.15)"/><path class="cls-2" d="M487.6,366.1c6.15.52,13.72,16.88,12,29.91-.71,5.47-3.15,6-3.87,14.54-.64,7.65,3,16.62-2.17,22.31-4.45,4.91-13.17,4.1-17.25,9.32-3,3.78-2.25,9.25-.65,13.77s3.95,9,3.88,13.76c-.08,5.33-3.51,8.31-13.65,19.05-15.06,16-15.32,17.71-16.44,17.32C439.49,502.63,469.23,364.55,487.6,366.1Z" transform="translate(-446 -73.15)"/><path class="cls-2" d="M487.6,367.57c2.17.24,4.17,3.1,5.3,4.91a36.51,36.51,0,0,1,4.38,10.79,33.89,33.89,0,0,1,.89,12.64c-.38,2.73-1.72,5.06-2.58,7.63A31.73,31.73,0,0,0,494.37,416c.32,4.06,1.2,8.44,0,12.43-2.33,8-13,6.72-18.24,11.78-3.16,3.05-3.71,7.52-3.05,11.67.75,4.81,3.3,9.07,4.47,13.76.67,2.72.81,5.45-.38,7.83a28.79,28.79,0,0,1-4.86,6.35c-5.87,6.42-12,12.62-17.76,19.13-1.34,1.5-2.65,3-4,4.53-.32.35-.64.71-1,1.05l-.32.29c.1-.09.28-.16,0,0,.29-.13.11-.1.48-.13-.24,0,.5.07.15,0-.19,0,.44.16,0,0-.09,0,.34.21,0,0-.2-.14.13.31,0-.05-.07-.14-.15-.27-.22-.4-.16-.3.12.33,0,.06,0-.08-.06-.16-.08-.24l-.18-.58c-.11-.44-.19-.88-.26-1.32s0,.12,0-.09,0-.25-.05-.37c0-.3-.06-.59-.08-.89-.1-1.32-.11-2.65-.09-4a166.44,166.44,0,0,1,2.55-24c1.72-10.76,3.89-21.44,6.35-32.05,2.56-11.07,5.45-22.08,8.8-32.93a201.21,201.21,0,0,1,9.9-26.67,60,60,0,0,1,5-8.89,18.56,18.56,0,0,1,2.31-2.78,6.78,6.78,0,0,1,2.12-1.6l.31-.14c-.24.11-.23.08,0,0l.54-.15c.49-.16-.21,0,.2,0h.59c1.89.15,1.89-2.8,0-2.95-2.17-.16-4.16,1.18-5.65,2.62a31,31,0,0,0-5.27,7.27c-4.47,7.89-7.6,16.57-10.47,25.14-3.66,10.91-6.74,22-9.49,33.19s-5.19,22.55-7.17,33.94a223.46,223.46,0,0,0-3.43,27,47.14,47.14,0,0,0,.14,8.4c.22,1.73.58,4,2.21,5,1.84,1.12,3.25-.59,4.37-1.85,4.28-4.82,8.55-9.63,13-14.32,3.21-3.43,6.53-6.78,9.65-10.29a25.2,25.2,0,0,0,4.67-6.65c3.33-7.85-3.05-15.45-4.17-23a11.53,11.53,0,0,1,.68-6.57,8.92,8.92,0,0,1,4.18-4c3.44-1.75,7.37-2.3,10.75-4.22a12.44,12.44,0,0,0,6.2-9.88c.5-4.42-.52-8.86-.6-13.28a26.4,26.4,0,0,1,2.07-10.89,24.58,24.58,0,0,0,2.11-9.9c0-8-2.34-16.9-7.25-23.3-1.63-2.13-3.71-4.13-6.5-4.43C485.72,364.42,485.73,367.37,487.6,367.57Z" transform="translate(-446 -73.15)"/><path class="cls-2" d="M465.44,658.22c3.81-3.11,11.26,3.33,27.34,3.78a10.1,10.1,0,0,1,6.51,2.24c3.32,2.83,3.64,8.34,3.65,13.13,0,9.24,1.39,20.78,9,23.51,2.09.76,4.35.65,6.55.83,13.91,1.17,25.45,15.41,27.44,31.37,1.91,15.35-5.22,27.41-15.18,43.2-4.74,7.52-7.11,11.28-9.6,12C498.77,794.32,451.66,669.46,465.44,658.22Z" transform="translate(-446 -73.15)"/><path class="cls-2" d="M466.43,659.21a3.05,3.05,0,0,1,1.57-.43,10.32,10.32,0,0,1,2.74.4c2.75.67,5.43,1.58,8.18,2.27a64.34,64.34,0,0,0,12.49,1.89,14.1,14.1,0,0,1,5.08.78,7.27,7.27,0,0,1,3.93,4.26c1.38,3.73,1,7.81,1.17,11.72a49.23,49.23,0,0,0,1.48,11.2c.85,3.17,2.25,6.44,4.74,8.68a10.91,10.91,0,0,0,4.16,2.39c2.27.7,4.67.53,7,.79,7.32.8,13.72,5.56,18,11.33a39.63,39.63,0,0,1,7.82,22.59c.21,8.66-2.82,16.78-6.84,24.31-2.31,4.35-4.91,8.55-7.54,12.73a106.07,106.07,0,0,1-6.82,10.34,8.85,8.85,0,0,1-2.22,2.14,2,2,0,0,1-.8.33l-.34.07c-.37.08.21,0-.1,0a7.8,7.8,0,0,1-1.45,0c-.24,0,.3.06-.08,0l-.32-.07c-.27-.06-.53-.13-.79-.21l-.75-.27c-.21-.08.21.1-.14-.06l-.43-.21a15,15,0,0,1-1.56-.9,20.21,20.21,0,0,1-3.11-2.49c-5.78-5.38-10.1-12.35-14-19.14a257.17,257.17,0,0,1-13.89-28.22q-6.48-15.17-11.46-30.91a194.83,194.83,0,0,1-6.84-27.21,64.17,64.17,0,0,1-.94-10c0-.71,0-1.41.06-2.11,0-.29,0-.59.07-.88s0-.3.05-.45a1.26,1.26,0,0,1,0-.28,14.26,14.26,0,0,1,.32-1.58c.06-.24.13-.48.21-.71l.12-.33c.12-.33-.07.14,0,0a7.71,7.71,0,0,1,.6-1.09c.18-.27-.11.13,0,0l.18-.21.4-.37c1.39-1.15-.6-3.12-2-2-1.6,1.33-2.25,3.55-2.57,5.52a37.18,37.18,0,0,0-.08,9.19c.85,9,3.08,17.84,5.57,26.48a326.44,326.44,0,0,0,11.06,31.79,292.74,292.74,0,0,0,14.16,30.43c4.2,7.71,8.83,15.48,14.81,22,3.35,3.63,8.55,8.43,14,7,2.31-.6,3.9-2.7,5.25-4.53,2.77-3.76,5.16-7.83,7.63-11.8,4.93-7.93,9.9-16.22,12.14-25.38,3.87-15.83-2.1-34.61-16.21-43.56a26,26,0,0,0-10.38-3.88c-2.35-.31-4.81-.09-7.1-.79A8.33,8.33,0,0,1,508.8,697c-2.26-2.69-3.18-6.38-3.75-9.77a85,85,0,0,1-.74-11.72c-.11-4-.55-8.45-3.32-11.55-3-3.38-7.22-3.19-11.34-3.52a63.71,63.71,0,0,1-11.94-2.19,75.1,75.1,0,0,0-7.75-2.08,6.64,6.64,0,0,0-5.51,1.07C463,658.34,465,660.31,466.43,659.21Z" transform="translate(-446 -73.15)"/><path class="cls-3" d="M734.53,989.47c0,.15,31.78,11.4,74.12,7.45a260.47,260.47,0,0,0,76.53-19.28l30.49-13c11.17-4.78,23.39-9.65,35.16-6.61,1.94.5,4.06,1.43,4.69,3.32.83,2.45-1.28,4.85-1.86,7.37-1.27,5.56,5.49,10.09,11.23,9.56s10.67-4.07,16-6.32c15.21-6.45,32.55-2.06,49.05-.9s36.42-3.41,42-18.82c1.13-3.11,1.61-6.55,3.6-9.2,3-4,8.35-5.07,13.25-5.91,20-3.38,40.08-6.78,60.31-6.05,8.09.29,16.41,1.21,24.08-1.35,5.81-1.94,10.78-5.74,15.62-9.48l34.56-26.68c14-10.82,21.5-15.84,29.41-17.24,12.23-2.15,29.09,1,31.64,7.41,7.85,19.78-104.7,109-236.81,137.46C884.21,1056.35,734.6,989.12,734.53,989.47Z" transform="translate(-446 -73.15)"/><path class="cls-3" d="M732.75,991.24c.74.78,2.19,1.06,3.18,1.38,2.24.72,4.52,1.34,6.8,1.92a190.82,190.82,0,0,0,25.44,4.5c22.23,2.48,44.57.91,66.48-3.37A261,261,0,0,0,871,985.84c13.28-4.67,26.12-10.59,39.06-16.12,12-5.13,26.64-13.08,40.11-9.3,1.25.35,2.69.68,2.92,2.09s-.82,2.66-1.28,3.85a9.11,9.11,0,0,0,.1,7.51c2.06,4.24,7,6.72,11.54,6.92,5.83.26,11.16-3.1,16.2-5.54A44.63,44.63,0,0,1,998.11,971c12.5-.34,24.79,2.79,37.28,2.69,9.52-.08,19.7-1.9,27.81-7.16a28.37,28.37,0,0,0,9.3-9.6c2.57-4.53,2.56-11.26,7.1-14.36,4.73-3.23,11.88-3.43,17.35-4.33,7.28-1.21,14.57-2.37,21.89-3.23s14.38-1.42,21.6-1.55c7-.13,13.9.57,20.86.47a39,39,0,0,0,18.42-4.43c5.9-3.2,11.1-7.72,16.39-11.81,11.37-8.78,22.65-17.69,34.15-26.3,6.79-5.09,14.16-10.92,22.7-12.6a46.68,46.68,0,0,1,15.6-.16c4.06.61,9,1.56,12.21,4.33a4.58,4.58,0,0,1,1.42,2c.11.3.11.77.06.16,0,.33,0,.66,0,1,0,.9.1.18-.18,1.23-.19.72-.4,1.42-.66,2.12a41.64,41.64,0,0,1-5.84,9.28c-7.87,9.87-17.64,18.27-27.46,26.12a414.77,414.77,0,0,1-44.69,30.72,530.72,530.72,0,0,1-125.06,55.13c-49.87,14.54-101.85,19.9-153.68,17.52A586.65,586.65,0,0,1,800,1008.63,529.32,529.32,0,0,1,737.66,988c-1.39-.57-2.9-1.54-4.4-.73-2.85,1.53-.31,5.88,2.54,4.34-1.79,1-2.48-.12-1,.63.78.38,1.63.66,2.43,1,3.07,1.24,6.15,2.43,9.24,3.6,11.11,4.18,22.38,7.94,33.74,11.37a606,606,0,0,0,115.89,23c51.32,5,103.51,3,153.95-8.06,46.39-10.2,91.23-27.73,133-50.2a492.66,492.66,0,0,0,51-31.34c12.49-8.81,24.69-18.25,35.6-29,6.43-6.32,13.81-13.71,16.81-22.45,4.82-14-15.55-17.06-25.2-17.11a42.32,42.32,0,0,0-24,7.18c-11.09,7.08-21.27,15.71-31.68,23.74l-17.28,13.34c-5.17,4-10.47,8.3-16.84,10.2-6.61,2-13.64,1.34-20.42,1a181.47,181.47,0,0,0-21.5.35,390.9,390.9,0,0,0-43.07,6c-4.92.92-10.14,2.51-13.19,6.78-3.16,4.43-3.25,10.23-6.49,14.69-5.64,7.78-16,11-25.16,11.91-12,1.24-23.9-1.44-35.85-2.17a65.83,65.83,0,0,0-19.3,1.26c-6.17,1.47-11.26,5-17.11,7.13-4,1.51-12.3,2.08-13.38-3.86-.49-2.64,2-5.11,2.12-7.75a6.56,6.56,0,0,0-3.27-6c-4.93-3-12.15-2.75-17.63-2-6.77,1-13.21,3.37-19.49,6-13.45,5.61-26.7,11.78-40.28,17.08-41.48,16.19-88.41,22.56-132.06,12-2.42-.59-4.83-1.22-7.21-1.95-.72-.22-1.42-.46-2.14-.69-1.14-.37-.38-.31.19.29C734.08,985.33,730.53,988.89,732.75,991.24Z" transform="translate(-446 -73.15)"/><path class="cls-2" d="M946.44,78.65c-.6,2.75,6.82,8,13,10.1,7.84,2.73,9.6,0,17.28,2.24a23.85,23.85,0,0,1,14.82,13c.7,1.57,1.27,3.29,2.58,4.4,1.55,1.32,3.75,1.48,5.79,1.57l25.48,1.15c2.76.13,5.83.39,7.7,2.44,2.09,2.3,1.77,5.87,2.87,8.78,1.93,5.12,8.28,7.49,13.64,6.44s9.83-4.75,13.55-8.76c2.85-3.08,5.51-6.64,6.11-10.8.37-2.57-.27-3.74.52-6,1.62-4.74,6.09-5.6,6.19-6.9C1076.54,89.2,948.83,67.86,946.44,78.65Z" transform="translate(-446 -73.15)"/><path class="cls-2" d="M944,78c-.56,3.41,2.24,5.92,4.7,7.81a35.78,35.78,0,0,0,10.51,5.54c3.54,1.17,7,1.21,10.64,1.18a20.88,20.88,0,0,1,10.42,2.71,21.5,21.5,0,0,1,7.87,7.69c1,1.68,1.56,3.56,2.56,5.23A8.25,8.25,0,0,0,996,112a36.64,36.64,0,0,0,6.87.6l7.59.34c5,.23,10.09.44,15.13.69a10.47,10.47,0,0,1,4.88,1c1.46.87,1.79,2.57,2.09,4.13a21,21,0,0,0,1.65,5.76,12.17,12.17,0,0,0,3.62,4.1,15.52,15.52,0,0,0,10.46,2.86,22.42,22.42,0,0,0,11.64-5,41.2,41.2,0,0,0,8.76-9.31,19.06,19.06,0,0,0,2.73-5.87,31.68,31.68,0,0,0,.48-6c.21-3,2.4-4.35,4.43-5.8,1.59-1.14,2.87-3,1.74-4.9a8,8,0,0,0-3.88-2.85,60.86,60.86,0,0,0-7.45-2.61c-7.45-2.18-15.06-3.81-22.66-5.34-9.78-2-19.61-3.68-29.46-5.2-10.08-1.54-20.2-2.9-30.34-3.94a231.58,231.58,0,0,0-24.41-1.49,60.36,60.36,0,0,0-8.81.58,11.07,11.07,0,0,0-5.64,2.1A4.2,4.2,0,0,0,944,78c-.75,3.15,4.1,4.49,4.85,1.34.11-.48-.15.3-.14.28.26-.55,0,.22-.18.17,0,0,.22-.23.24-.25.34-.31-.64.35-.12.1.13-.06.25-.14.37-.21l.21-.11c.4-.25-.46.15-.26.11.36-.09.72-.26,1.08-.36s.89-.22,1.34-.31l.7-.12.37-.06c.61-.1-.58.07-.06,0,1.23-.13,2.47-.24,3.71-.3a161.93,161.93,0,0,1,21.57.78c4.52.39,9,.86,13.55,1.38,2.41.29,4.82.58,7.23.9s4.19.55,6.84.93q14.56,2.07,29,4.75c8.22,1.52,16.42,3.18,24.53,5.21,3,.75,5.95,1.54,8.87,2.47q1.65.53,3.27,1.14l.69.28c.43.16-.55-.25-.21-.09l.33.14c.36.17.73.34,1.08.53s.56.34.84.5c.48.27-.3-.33-.17-.14s.21.15.27.25c.26.43-.35-.5-.2-.27.26.43-.2-.55-.14-.35a2.39,2.39,0,0,1,0-1c.07-.21.6-.9.3-.59s.37-.22-.13.1c-2.62,1.68-4.88,3.66-6.08,6.61a13.71,13.71,0,0,0-.75,5.43,11.25,11.25,0,0,1-1.29,5.27,32.07,32.07,0,0,1-7.67,9.1c-2.65,2.31-5.93,4.37-9.47,4.82a10.61,10.61,0,0,1-8.34-2.4c-2.66-2.47-2.2-6.14-3.45-9.3-1.67-4.24-5.53-5.7-9.8-6-4.64-.37-9.31-.45-14-.66s-9.44-.29-14.14-.65c-1.72-.13-3-.54-3.89-2.11s-1.53-3.55-2.55-5.21a26.62,26.62,0,0,0-19.4-12.4c-2.91-.35-5.85.17-8.74-.26a27.83,27.83,0,0,1-10.57-4.3,21,21,0,0,1-3.52-2.71,4.71,4.71,0,0,1-1-1.19c-.06-.09-.11-.19-.16-.28-.26-.45,0,0,0,0,0-.18.09-.33,0,.16,0-.12.06-.55-.06.2a2.59,2.59,0,0,0-1.76-3.09A2.53,2.53,0,0,0,944,78Z" transform="translate(-446 -73.15)"/></svg>