<svg id="Layer_1" data-name="Layer 1" xmlns="http://www.w3.org/2000/svg" viewBox="0 0 300 300"><defs><style>.cls-1{fill:#ee709c;}.cls-2{fill:none;stroke-width:6.76px;}.cls-2,.cls-4{stroke:#fff;stroke-miterlimit:10;}.cls-3,.cls-4{fill:#fff;}.cls-4{stroke-width:3.02px;}</style></defs><title>accessability-icon-pink</title><rect class="cls-1" x="0.5" y="0.5" width="299" height="299" rx="40.64"/><path class="cls-1" d="M648.86,811A40.19,40.19,0,0,1,689,851.14v217.72A40.19,40.19,0,0,1,648.86,1109H431.14A40.19,40.19,0,0,1,391,1068.86V851.14A40.19,40.19,0,0,1,431.14,811H648.86m0-1H431.14A41.26,41.26,0,0,0,390,851.14v217.72A41.26,41.26,0,0,0,431.14,1110H648.86A41.26,41.26,0,0,0,690,1068.86V851.14A41.26,41.26,0,0,0,648.86,810Z" transform="translate(-390 -810)"/><path class="cls-2" d="M572.49,972.45a39.41,39.41,0,1,1-43.9,28.56" transform="translate(-390 -810)"/><path class="cls-3" d="M540.24,994.41a10.69,10.69,0,0,1-9.7-6.2l-28.21-61.58a10.66,10.66,0,0,1,5.24-14.1l15.2-7a10.44,10.44,0,0,1,4.4-1,10.67,10.67,0,0,1,9.7,6.2l28.21,61.58a10.66,10.66,0,0,1-5.24,14.1l-15.2,7A10.44,10.44,0,0,1,540.24,994.41Z" transform="translate(-390 -810)"/><path class="cls-3" d="M527.17,904.87a10.42,10.42,0,0,1,9.46,6l28.21,61.58a10.38,10.38,0,0,1-5.11,13.75l-15.2,7a10.27,10.27,0,0,1-4.29.94,10.43,10.43,0,0,1-9.46-6l-28.21-61.58a10.38,10.38,0,0,1,5.11-13.75l15.2-7a10.12,10.12,0,0,1,4.29-.94m0-.54a10.81,10.81,0,0,0-4.51,1l-15.21,7a10.94,10.94,0,0,0-5.37,14.46l28.21,61.58a11,11,0,0,0,10,6.36,10.81,10.81,0,0,0,4.51-1l15.21-7a10.94,10.94,0,0,0,5.37-14.46l-28.21-61.58a11,11,0,0,0-10-6.36Z" transform="translate(-390 -810)"/><ellipse class="cls-4" cx="115.12" cy="76.58" rx="17.56" ry="17.66"/><path class="cls-3" d="M580.36,960.33a6,6,0,0,1-5.45-3.49l-14-30.56a6,6,0,0,1,2.94-7.92l3.32-1.53a6.08,6.08,0,0,1,2.48-.54,6,6,0,0,1,5.45,3.49l14,30.56a6,6,0,0,1-3,7.93l-3.32,1.52A5.85,5.85,0,0,1,580.36,960.33Z" transform="translate(-390 -810)"/><path class="cls-3" d="M569.65,916.17v.25a5.87,5.87,0,0,1,5.33,3.41l14,30.56a5.85,5.85,0,0,1,.16,4.48,5.79,5.79,0,0,1-3,3.28l-3.32,1.53a5.8,5.8,0,0,1-2.42.53,5.88,5.88,0,0,1-5.34-3.42l-14-30.56a5.87,5.87,0,0,1,2.88-7.76l3.33-1.52a5.77,5.77,0,0,1,2.42-.53v-.25m0,0a6.14,6.14,0,0,0-2.53.55l-3.32,1.53a6.12,6.12,0,0,0-3,8.08l14,30.57a6.11,6.11,0,0,0,5.56,3.55,5.91,5.91,0,0,0,2.52-.55l3.33-1.52a6.12,6.12,0,0,0,3-8.09l-14-30.56a6.11,6.11,0,0,0-5.56-3.56Z" transform="translate(-390 -810)"/><path class="cls-3" d="M567.12,930.64a6.06,6.06,0,0,1-1.12-.1l-43.68-8a6.25,6.25,0,0,1-5-7.27l1-5.23a6.23,6.23,0,0,1,6.15-5.12,6,6,0,0,1,1.11.1l43.69,8a6.26,6.26,0,0,1,5,7.27l-1,5.23A6.24,6.24,0,0,1,567.12,930.64Z" transform="translate(-390 -810)"/><path class="cls-3" d="M524.41,905.07h0a6.7,6.7,0,0,1,1.09.1l43.68,8a6.07,6.07,0,0,1,3.92,2.54,6,6,0,0,1,1,4.56l-1,5.23a6.1,6.1,0,0,1-6,5,5.74,5.74,0,0,1-1.09-.1l-43.68-8a6.12,6.12,0,0,1-4.91-7.1l1-5.24a6.11,6.11,0,0,1,6-5m0-.29a6.42,6.42,0,0,0-6.29,5.24l-1,5.24a6.42,6.42,0,0,0,5.14,7.44l43.69,8a5.57,5.57,0,0,0,1.14.11,6.43,6.43,0,0,0,6.3-5.24l1-5.24a6.41,6.41,0,0,0-5.13-7.44l-43.69-8a6.38,6.38,0,0,0-1.15-.1Z" transform="translate(-390 -810)"/><path class="cls-3" d="M505.84,1050.9a7.93,7.93,0,0,1-7.19-4.6l-23.18-50.6a7.88,7.88,0,0,1,3.88-10.44l6.36-2.92a7.81,7.81,0,0,1,3.26-.71,7.92,7.92,0,0,1,7.19,4.59l23.18,50.61a7.91,7.91,0,0,1-3.88,10.44l-6.37,2.91A7.63,7.63,0,0,1,505.84,1050.9Z" transform="translate(-390 -810)"/><path class="cls-3" d="M489,981.82a7.74,7.74,0,0,1,7,4.48l23.18,50.6a7.72,7.72,0,0,1-3.79,10.2L509,1050a7.62,7.62,0,0,1-3.18.69,7.73,7.73,0,0,1-7-4.48l-23.18-50.61a7.7,7.7,0,0,1,3.79-10.19l6.36-2.92a7.62,7.62,0,0,1,3.18-.69m0-.38a8,8,0,0,0-3.33.73l-6.37,2.92a8.08,8.08,0,0,0-4,10.69l23.18,50.6a8.11,8.11,0,0,0,7.36,4.7,7.89,7.89,0,0,0,3.33-.73l6.37-2.91a8.09,8.09,0,0,0,4-10.69l-23.19-50.61a8.09,8.09,0,0,0-7.35-4.7Z" transform="translate(-390 -810)"/><path class="cls-3" d="M482.66,1000.42a7.94,7.94,0,0,1-7.85-7.16l-.66-7.13a7.9,7.9,0,0,1,7.13-8.58l54.93-5.06.73,0a7.94,7.94,0,0,1,7.85,7.16l.66,7.13a7.9,7.9,0,0,1-7.13,8.58l-54.94,5.06Z" transform="translate(-390 -810)"/><path class="cls-3" d="M536.94,972.64a7.75,7.75,0,0,1,7.66,7l.66,7.13a7.71,7.71,0,0,1-7,8.37l-54.94,5.06a5.48,5.48,0,0,1-.7,0,7.76,7.76,0,0,1-7.67-7l-.65-7.14a7.72,7.72,0,0,1,7-8.37l54.94-5.06a5.63,5.63,0,0,1,.71,0m0-.37c-.25,0-.49,0-.74,0l-54.94,5.07a8.09,8.09,0,0,0-7.3,8.77l.66,7.14a8.1,8.1,0,0,0,8,7.33l.74,0,54.94-5.07a8.08,8.08,0,0,0,7.29-8.77L545,979.6a8.11,8.11,0,0,0-8-7.33Z" transform="translate(-390 -810)"/></svg>