<svg id="Layer_1" data-name="Layer 1" xmlns="http://www.w3.org/2000/svg" viewBox="0 0 300 300"><defs><style>.cls-1{fill:#ff7bac;}.cls-2,.cls-3{fill:#ee709c;}.cls-3{stroke:#fff;stroke-miterlimit:10;stroke-width:12px;}.cls-4{font-size:87px;fill:#fff;font-family:Arial-Black, Arial Black;font-weight:800;letter-spacing:0.1em;}</style></defs><title>copy-icon-pink</title><rect class="cls-1" x="0.5" y="0.5" width="299" height="299" rx="40.64"/><path class="cls-2" d="M648.86,811A40.19,40.19,0,0,1,689,851.14v217.72A40.19,40.19,0,0,1,648.86,1109H431.14A40.19,40.19,0,0,1,391,1068.86V851.14A40.19,40.19,0,0,1,431.14,811H648.86m0-1H431.14A41.26,41.26,0,0,0,390,851.14v217.72A41.26,41.26,0,0,0,431.14,1110H648.86A41.26,41.26,0,0,0,690,1068.86V851.14A41.26,41.26,0,0,0,648.86,810Z" transform="translate(-390 -810)"/><circle class="cls-3" cx="150" cy="150" r="70"/><text class="cls-4" transform="translate(116.16 180.19)">C</text></svg>