<svg id="Layer_1" data-name="Layer 1" xmlns="http://www.w3.org/2000/svg" viewBox="0 0 630.68 517.48"><defs><style>.cls-1,.cls-3,.cls-5,.cls-7{fill:#a67c52;}.cls-1{stroke:#a67c52;stroke-width:3.73px;}.cls-1,.cls-2,.cls-3,.cls-4,.cls-5,.cls-6,.cls-7{stroke-miterlimit:10;}.cls-2,.cls-4,.cls-6{fill:#603813;}.cls-2,.cls-3,.cls-4,.cls-5,.cls-6,.cls-7{stroke:#603813;}.cls-2,.cls-3{stroke-width:7.14px;}.cls-4,.cls-5{stroke-width:4.36px;}.cls-6,.cls-7{stroke-width:7.41px;}</style></defs><title>meteor3</title><path class="cls-1" d="M1156.48,484.27c-54.9-25.26-88.5-70-111-100-36.48-48.61-29.1-60.68-55-78-51.59-34.52-120.28-13-133-9-12.16,3.81-50.12,16.22-81,51-7.26,8.18-13.28,16.64-49,101-28.33,66.93-29.66,73.69-42,92-26.16,38.83-40.37,38.34-45,60-8.42,39.39,28,90.26,72,113,15.32,7.92,41.27,17.46,168,0,114.81-15.82,134.41-29.28,167-13,55.94,27.94,48.49,92.71,88,99,44.94,7.15,96.27-70,116-129,4.14-12.39,36.8-113.94-11-159C1218.28,491.33,1203.36,505.83,1156.48,484.27Z" transform="translate(-637.4 -285.11)"/><path class="cls-2" d="M846.47,345.53c-24.89,22.2-25.59,46.79-1.56,55,0,0,.07,0,.09,0,24.1,8.13,63.85-3.3,88.79-25.52,19.82-17.68,24.29-36.87,13.17-48.08a29.53,29.53,0,0,0-11.71-6.9C911.15,311.88,871.41,323.31,846.47,345.53Z" transform="translate(-637.4 -285.11)"/><path class="cls-3" d="M859.53,350.51c-18.47,17.57-22.71,36.57-12.46,47.59,0,0,.06,0,.09,0,22.31,7.93,59.23-3.56,82.47-25.65,18.47-17.58,22.71-36.58,12.44-47.6l-.07,0C919.69,316.93,882.75,328.42,859.53,350.51Z" transform="translate(-637.4 -285.11)"/><path class="cls-4" d="M1189.38,721.33c15.63-13.18,15.06-26.92-1.27-30.71H1188c-16.38-3.77-42.35,3.87-58,17.06-12.45,10.5-14.62,21.35-6.75,27.24a21.4,21.4,0,0,0,8.08,3.48C1147.74,742.16,1173.71,734.52,1189.38,721.33Z" transform="translate(-637.4 -285.11)"/><path class="cls-5" d="M1180.47,719c11.56-10.4,13.58-21.13,6.3-27l-.06,0c-15.19-3.71-39.28,3.88-53.82,17-11.55,10.39-13.58,21.13-6.28,26.95h0C1141.84,739.62,1166,732,1180.47,719Z" transform="translate(-637.4 -285.11)"/><path class="cls-6" d="M833.21,626.79c30.08,18.72,30.25,40.21.39,48l-.12,0c-30,7.78-78.65-1.11-108.79-19.85-24-14.92-28.94-31.58-14.91-41.68a43.83,43.83,0,0,1,14.63-6.37C754.36,599.16,803.06,608.05,833.21,626.79Z" transform="translate(-637.4 -285.11)"/><path class="cls-7" d="M817,631.51c22.29,14.85,27,31.35,14,41.27,0,0-.08,0-.11,0-27.74,7.56-72.95-1.47-101-20.14-22.29-14.87-27-31.36-14-41.29l.08,0C743.69,603.81,788.93,612.83,817,631.51Z" transform="translate(-637.4 -285.11)"/></svg>