<svg id="Layer_1" data-name="Layer 1" xmlns="http://www.w3.org/2000/svg" viewBox="0 0 552.01 399.14"><defs><style>.cls-1,.cls-11,.cls-3,.cls-5,.cls-7,.cls-9{fill:#a67c52;}.cls-1{stroke:#a67c52;stroke-width:3.16px;}.cls-1,.cls-10,.cls-11,.cls-2,.cls-3,.cls-4,.cls-5,.cls-6,.cls-7,.cls-8,.cls-9{stroke-miterlimit:10;}.cls-10,.cls-2,.cls-4,.cls-6,.cls-8{fill:#603813;}.cls-10,.cls-11,.cls-2,.cls-3,.cls-4,.cls-5,.cls-6,.cls-7,.cls-8,.cls-9{stroke:#603813;}.cls-2,.cls-3{stroke-width:2.52px;}.cls-4,.cls-5{stroke-width:4.78px;}.cls-6,.cls-7{stroke-width:4.14px;}.cls-8,.cls-9{stroke-width:4.46px;}.cls-10,.cls-11{stroke-width:3.67px;}</style></defs><title>meteor4</title><path class="cls-1" d="M865.89,361.66c-42.79,24.48-28,51.42-75.19,78.92C769,453.22,762,449.82,743,463.55c-23.33,16.89-31.2,35.43-39.55,56-11.81,29.06-23.72,58.37-3.21,74.45,13.51,10.59,27.49,4.77,43.61,17.07,10.92,8.32,11.56,16.35,17.84,45.37,11.14,51.46,15.67,56.5,21.29,60.34,20,13.63,53.28,11.53,68.93,10.54,47.13-3,52.69-20.62,91.54-21.25,12-.2,37.23,6.56,87.59,20.06,34.42,9.22,40.25,11.67,54.17,11.48,32-.47,57-14.19,71.92-22.36,36.46-20,53.76-45,61.52-58.94a175.33,175.33,0,0,0,17-49.72c5-28.44.76-49.76-2.14-63.65-7-33.61-10.51-50.41-27.13-62.91-21.83-16.43-38.15-8-84.72-28-18-7.7-41.18-17.68-58.7-36.55-22.74-24.49-9.5-35.56-30.65-52.31-29-23-78.58-21.64-86.8-21.41C935.05,342,897.94,343.33,865.89,361.66Zm263.24,235a10.29,10.29,0,0,1,4.81,2.48c5,4.62,4.88,14.35-.9,24.53-7.28,12.79-20.81,21.45-30.23,19.33h0c-9.39-2.15-11.13-14.23-3.87-27S1119.71,594.54,1129.13,596.66Z" transform="translate(-687.52 -340.01)"/><path class="cls-2" d="M1050.57,512.06c4.65,9.21,14.67,13.12,22.38,8.75l0,0c7.71-4.39,10.19-15.43,5.53-24.66-3.71-7.33-10.81-11.31-17.44-10.42a13.65,13.65,0,0,0-5,1.69C1048.39,491.79,1045.91,502.83,1050.57,512.06Z" transform="translate(-687.52 -340.01)"/><path class="cls-3" d="M1055,509.76c3.91,7,11,10.89,17.38,10.18l0,0c7.3-4,9.24-14.39,4.33-23.2-3.91-7-11-10.89-17.38-10.18l0,0C1052,490.57,1050.07,501,1055,509.76Z" transform="translate(-687.52 -340.01)"/><path class="cls-4" d="M1099.26,616.3c-13.72,17.64-11.18,33.9,5.67,36.34h.07c16.89,2.42,41.72-9.95,55.47-27.61,10.93-14.06,11.54-27.23,2.83-33.24a19.8,19.8,0,0,0-8.57-3.12C1137.84,586.27,1113,598.64,1099.26,616.3Z" transform="translate(-687.52 -340.01)"/><path class="cls-5" d="M1108.49,618c-10,13.81-10.53,26.83-2.43,32.83h.07c15.69,2.5,38.65-9.57,51.29-26.94,10-13.82,10.53-26.83,2.41-32.83h0C1144.09,588.55,1121.11,600.62,1108.49,618Z" transform="translate(-687.52 -340.01)"/><path class="cls-6" d="M930.83,394.72c-16.79-10.22-17.28-22.43-1.1-27.3l.07,0c16.23-4.85,43-.49,59.85,9.73,13.37,8.14,16.4,17.54,8.91,23.49a23.53,23.53,0,0,1-7.88,3.83C974.45,409.3,947.66,404.94,930.83,394.72Z" transform="translate(-687.52 -340.01)"/><path class="cls-7" d="M939.63,391.8c-12.46-8.12-15.33-17.44-8.44-23.26l.06,0c15-4.69,39.92-.21,55.6,10,12.45,8.13,15.33,17.44,8.42,23.27h0C980.19,406.5,955.29,402,939.63,391.8Z" transform="translate(-687.52 -340.01)"/><path class="cls-8" d="M755.69,521c7.47-17.61,25-27.7,39.13-22.55l.06,0c14.14,5.19,19.54,23.7,12.07,41.33-6,14-18.28,23.28-30.18,23.87a22.66,22.66,0,0,1-9-1.34C753.61,557.15,748.21,538.65,755.69,521Z" transform="translate(-687.52 -340.01)"/><path class="cls-9" d="M763.77,523.6c6.34-13.51,18.6-22.6,30.07-23.42h0c13.39,4.65,17.78,22.19,9.81,39.18-6.35,13.51-18.6,22.6-30.09,23.41h0C760.19,558.12,755.8,540.58,763.77,523.6Z" transform="translate(-687.52 -340.01)"/><path class="cls-10" d="M846.39,649.35c9.43,13.36,25.86,19.92,36.71,14.65l0,0c10.85-5.3,12-20.44,2.56-33.82-7.51-10.64-19.46-17-29.49-16.43a18.51,18.51,0,0,0-7.27,1.81C838.1,620.83,837,636,846.39,649.35Z" transform="translate(-687.52 -340.01)"/><path class="cls-11" d="M852.66,646.63c7.73,10.2,19.6,16.4,29.32,16.1l0,0c10.32-4.81,10.79-19.1,1.06-31.92-7.74-10.2-19.61-16.4-29.33-16.09h0C843.4,619.51,842.93,633.81,852.66,646.63Z" transform="translate(-687.52 -340.01)"/></svg>