<svg id="Layer_1" data-name="Layer 1" xmlns="http://www.w3.org/2000/svg" viewBox="0 0 589.81 543.46"><defs><style>.cls-1,.cls-11,.cls-3,.cls-5,.cls-7,.cls-9{fill:#a67c52;}.cls-1{stroke:#a67c52;stroke-width:4.89px;}.cls-1,.cls-10,.cls-11,.cls-2,.cls-3,.cls-4,.cls-5,.cls-6,.cls-7,.cls-8,.cls-9{stroke-miterlimit:10;}.cls-10,.cls-2,.cls-4,.cls-6,.cls-8{fill:#603813;}.cls-10,.cls-11,.cls-2,.cls-3,.cls-4,.cls-5,.cls-6,.cls-7,.cls-8,.cls-9{stroke:#603813;}.cls-2,.cls-3{stroke-width:6.51px;}.cls-4,.cls-5{stroke-width:3.63px;}.cls-6,.cls-7{stroke-width:8.66px;}.cls-8,.cls-9{stroke-width:6.04px;}.cls-10,.cls-11{stroke-width:7.71px;}</style></defs><title>meteor2</title><path class="cls-1" d="M711.49,337.48c41.58-50.37,118-73.52,179-59,51.56,12.27,71,46.38,125,41,26.06-2.59,28.52-11.22,60-13,18-1,59.32-2.77,98,24,9.09,6.29,36.29,25.65,48,60,4.71,13.82,3.59,20.33,4,68,.39,45.49.58,68.24,2,78,8.36,57.48,33,61.46,30,97-2.35,27.94-19.34,46.41-53,83-27.58,30-48.5,52.72-83,63-22.83,6.8-24.11,0-81,5-33.13,2.94-59.33,7.62-78,11-65.79,11.91-66.5,18.82-91,17-26.9-2-46.6-12.66-86-34-41.77-22.62-62.65-33.93-75-56-18-32.22-12.4-68.55-10-84,5.89-38,20.82-43.08,21-80,.15-31.47-10.59-51.65-13-56-9.77-17.63-18.8-20.91-26-31C659.86,439.78,680,375.61,711.49,337.48Z" transform="translate(-670.38 -271.76)"/><path class="cls-2" d="M1070.36,392.56c-24.41-20.29-21-37.83,7.49-39.2h.12c28.63-1.34,71.65,14,96.11,34.37,19.43,16.16,21.26,30.57,6.79,36.47a44,44,0,0,1-14.41,2.74C1137.84,428.27,1094.81,412.88,1070.36,392.56Z" transform="translate(-670.38 -271.76)"/><path class="cls-3" d="M1086,391.43c-17.92-15.83-19.52-30.06-6.07-36h.1c26.58-1.52,66.39,13.4,89,33.31,17.92,15.84,19.51,30.08,6,36h-.07C1148.34,426.26,1108.5,411.34,1086,391.43Z" transform="translate(-670.38 -271.76)"/><path class="cls-4" d="M1155.63,496.06c-2.66,16.76,4.91,27,16.91,23h0c12-4.12,23.91-21.06,26.58-37.85,2.11-13.36-2.26-22.59-10.18-23.74a14.47,14.47,0,0,0-6.78.79C1170.19,462.32,1158.29,479.27,1155.63,496.06Z" transform="translate(-670.38 -271.76)"/><path class="cls-5" d="M1162.32,494.06c-1.62,12.89,2.78,22,10.3,23.32l.05,0c11.25-3.64,22-19.74,24.07-35.95,1.61-12.9-2.79-22-10.31-23.32l0,0C1175.14,461.75,1164.36,477.86,1162.32,494.06Z" transform="translate(-670.38 -271.76)"/><path class="cls-6" d="M838.08,379.86c20.59-35.07,13.62-65.83-15.58-68.74h-.11c-29.28-2.85-69.73,23.31-90.38,58.43-16.4,27.94-15.32,53.13.54,63.69a32.61,32.61,0,0,0,15.15,5.06C777,441.14,817.43,415,838.08,379.86Z" transform="translate(-670.38 -271.76)"/><path class="cls-7" d="M822,377.61c14.93-27.39,13.65-52.27-1.17-62.88h-.11c-27.23-3.13-64.53,22.26-83.34,56.7-14.93,27.41-13.65,52.28,1.2,62.89h.08C765.92,437.44,803.25,412,822,377.61Z" transform="translate(-670.38 -271.76)"/><path class="cls-8" d="M822.54,709.5c-26.75,9.53-32.27,27.45-12.35,40l.08.06c20,12.59,57.93,15.07,84.73,5.54,21.3-7.6,29.14-20.5,21.39-31.8a30.56,30.56,0,0,0-9.12-8.3C887.27,702.45,849.34,700,822.54,709.5Z" transform="translate(-670.38 -271.76)"/><path class="cls-9" d="M833.27,716.75c-20.07,7.88-27.66,20.71-20.67,31.63l.08,0c18.43,12,53.84,13.61,79.09,3.71,20.07-7.89,27.66-20.72,20.65-31.65l-.06,0C893.92,708.51,858.5,706.84,833.27,716.75Z" transform="translate(-670.38 -271.76)"/><path class="cls-10" d="M1160.29,732c25.44-29,31-62.72,12.37-75.25,0,0-.06,0-.07,0-18.68-12.48-54.47,1-80,30.06C1072.36,710,1064.73,736,1071.86,752a23.44,23.44,0,0,0,8.47,10.12C1099,774.59,1134.8,761.12,1160.29,732Z" transform="translate(-670.38 -271.76)"/><path class="cls-11" d="M1150.28,724.49c19.1-23.06,26.5-48.87,20.08-64.55,0,0,0,0-.07-.05-17.21-12.1-50.64,1.6-74.66,30.6-19.11,23.08-26.5,48.89-20.07,64.57l.06,0C1092.83,767.19,1126.27,753.49,1150.28,724.49Z" transform="translate(-670.38 -271.76)"/></svg>