<svg id="Layer_1" data-name="Layer 1" xmlns="http://www.w3.org/2000/svg" viewBox="0 0 649 594.97"><defs><style>.cls-1,.cls-11,.cls-3,.cls-5,.cls-7,.cls-9{fill:#a67c52;}.cls-1{stroke:#a67c52;stroke-width:4.12px;}.cls-1,.cls-10,.cls-11,.cls-2,.cls-3,.cls-4,.cls-5,.cls-6,.cls-7,.cls-8,.cls-9{stroke-miterlimit:10;}.cls-10,.cls-2,.cls-4,.cls-6,.cls-8{fill:#603813;}.cls-10,.cls-11,.cls-2,.cls-3,.cls-4,.cls-5,.cls-6,.cls-7,.cls-8,.cls-9{stroke:#603813;}.cls-2,.cls-3{stroke-width:3.28px;}.cls-4,.cls-5{stroke-width:6.25px;}.cls-6,.cls-7{stroke-width:5.4px;}.cls-8,.cls-9{stroke-width:5.83px;}.cls-10,.cls-11{stroke-width:4.79px;}</style></defs><title>meteor1</title><path class="cls-1" d="M1281.33,533c-1-8.88-7.19-62.39-48-91-29.75-20.85-44.86-5.32-87-27-32.46-16.7-51.95-40.56-67-59-39.08-47.85-28.65-66.38-58-88-22.34-16.46-49.23-18.3-103-22-22.24-1.53-56.31-3.63-100,5a344.57,344.57,0,0,0-75,24c-20.59,10-56.8,31.45-82,73-10.3,17-27.61,45.53-23,80,2,15,6.82,21,27,57,29.53,52.67,44.3,79,46,92,5.49,41.9-21.21,49.91-18,101,1.07,17,3.33,53,28,73,6.94,5.61,15.59,9.91,98,16,46.47,3.43,59.15,3.2,74,14,21.94,15.95,15.17,31.67,34,45,28.59,20.24,72.48,4,116-12,30.75-11.34,58.46-21.94,81-49,18.33-22,11.84-29.21,28-54,35.18-54,79.82-41.12,111-90C1286.69,584.36,1282.63,544.25,1281.33,533Zm-455-133.7c-18.79,9.28-38,8.8-42.91-1.07,0,0,0,0,0,0-4.89-9.9,6.4-25.46,25.21-34.76,15-7.39,30.19-8.59,38.25-3.79a11.78,11.78,0,0,1,4.68,4.9C856.46,374.41,845.17,390,826.36,399.27Z" transform="translate(-635.5 -242.52)"/><path class="cls-2" d="M997.11,439.39c-15.19-4-23-14.29-17.43-23.09,0,0,0,0,0,0,5.6-8.81,22.46-12.74,37.68-8.78,12.1,3.15,19.51,10.34,19.22,17.58a11.08,11.08,0,0,1-1.81,5.54C1029.2,439.41,1012.33,443.34,997.11,439.39Z" transform="translate(-635.5 -242.52)"/><path class="cls-3" d="M1000,434.37c-11.61-3.4-18.88-10.57-18.83-17.54l0,0c5.06-8.32,21-11.6,35.6-7.33,11.61,3.41,18.88,10.57,18.83,17.55,0,0,0,0,0,0C1030.51,435.37,1014.57,438.65,1000,434.37Z" transform="translate(-635.5 -242.52)"/><path class="cls-4" d="M825.81,398.92C800.48,415.71,774.6,414.85,768,397c0,0,0-.06,0-.08-6.59-17.91,8.63-46.06,34-62.89,20.17-13.37,40.69-15.55,51.55-6.86a19.88,19.88,0,0,1,6.31,8.87C866.38,353.94,851.17,382.1,825.81,398.92Z" transform="translate(-635.5 -242.52)"/><path class="cls-5" d="M821.64,389.18c-19.95,12.4-40.24,14.41-51,6.37,0,0,0-.05,0-.06-6.52-16.61,8.54-42.72,33.62-58.32,20-12.4,40.25-14.41,51-6.36a.43.43,0,0,0,0,.05C861.77,347.47,846.72,373.59,821.64,389.18Z" transform="translate(-635.5 -242.52)"/><path class="cls-6" d="M1200.76,554.84c18.79,16.91,38,16,42.91-2,0,0,0,0,0-.07,4.89-18-6.4-46.38-25.21-63.32-15-13.46-30.19-15.64-38.25-6.9a21.09,21.09,0,0,0-4.68,8.93C1170.66,509.56,1182,537.9,1200.76,554.84Z" transform="translate(-635.5 -242.52)"/><path class="cls-7" d="M1203.85,545c14.8,12.48,29.86,14.51,37.83,6.42,0,0,0-.05,0-.07,4.84-16.72-6.33-43-24.94-58.7-14.81-12.48-29.86-14.51-37.83-6.4,0,0,0,0,0,.05C1174.08,503.05,1185.25,529.34,1203.85,545Z" transform="translate(-635.5 -242.52)"/><path class="cls-8" d="M1032.27,757.89c26.32-10.06,39.19-30.07,28.77-44.71l0-.06c-10.48-14.64-40.34-18.33-66.71-8.26-21,8-33.39,22.35-32.32,35.23a18.94,18.94,0,0,0,3.6,9.55C976,764.27,1005.91,768,1032.27,757.89Z" transform="translate(-635.5 -242.52)"/><path class="cls-9" d="M1026.87,749.49c20.09-8.38,32.28-22.61,31.65-35.06l0-.06c-9.5-13.88-37.69-16.59-63-6.06-20.09,8.38-32.28,22.62-31.64,35.08l0,0C973.43,757.3,1001.62,760,1026.87,749.49Z" transform="translate(-635.5 -242.52)"/><path class="cls-10" d="M816.23,675c-22.48-8.62-35.48-25.55-29.05-37.85a.09.09,0,0,0,0-.05c6.48-12.29,30-15.26,52.51-6.63,17.91,6.87,29.8,19,30.65,29.87a14.5,14.5,0,0,1-1.62,8C862.27,680.62,838.75,683.59,816.23,675Z" transform="translate(-635.5 -242.52)"/><path class="cls-11" d="M819.46,667.9c-17.26-7.16-28.94-19.23-30.09-29.72,0,0,0,0,0,0,5.8-11.66,28.09-13.8,49.79-4.8,17.26,7.17,28.94,19.23,30.08,29.73,0,0,0,0,0,0C863.44,674.75,841.14,676.91,819.46,667.9Z" transform="translate(-635.5 -242.52)"/></svg>