<svg id="Layer_1" data-name="Layer 1" xmlns="http://www.w3.org/2000/svg" viewBox="0 0 520.97 473.88"><defs><style>.cls-1,.cls-3,.cls-5,.cls-7{fill:#a67c52;}.cls-1,.cls-2,.cls-3,.cls-4,.cls-5,.cls-6,.cls-7{stroke:#603813;stroke-miterlimit:10;}.cls-1{stroke-width:3.36px;}.cls-2,.cls-4,.cls-6{fill:#603813;}.cls-2,.cls-3{stroke-width:5.99px;}.cls-4,.cls-5{stroke-width:7.14px;}.cls-6,.cls-7{stroke-width:3.73px;}</style></defs><title>meteor5</title><path class="cls-1" d="M780.26,369.53c29.91-25.49,58.65-37.26,73-43,35.92-14.36,81.06-32.41,131-17,56.55,17.45,87.24,67.92,92,76,15.64,26.56,12,38.27,32,63s31.58,22.83,59,49c23,22,44.56,42.52,50,74,6.72,38.88-13.81,78.82-41,100-20.1,15.66-32.22,12-64,23-71.4,24.71-74.86,65.51-118,77-59.88,16-123.45-43.91-183-100-63.58-59.88-114.9-108.21-110-174C706.08,432.76,762.91,384.32,780.26,369.53Z" transform="translate(-699.25 -301.96)"/><path class="cls-2" d="M913.79,398.11c-25.5-14.16-25.51-30.64,0-36.83l.11,0c25.57-6.17,67,.33,92.57,14.51,20.31,11.28,24.45,24,12.43,31.87a40.13,40.13,0,0,1-12.51,5C980.79,418.79,939.36,412.29,913.79,398.11Z" transform="translate(-699.25 -301.96)"/><path class="cls-3" d="M927.68,394.39c-18.9-11.25-22.8-23.87-11.71-31.57l.1,0c23.69-6,62.16.65,85.93,14.79,18.9,11.26,22.8,23.88,11.68,31.58h-.07C989.92,415.15,951.43,408.53,927.68,394.39Z" transform="translate(-699.25 -301.96)"/><path class="cls-4" d="M1070.85,584.09c-24.89,22.2-25.59,46.79-1.56,54.95l.1,0c24.1,8.14,63.84-3.29,88.78-25.51,19.82-17.69,24.3-36.88,13.17-48.08a29.4,29.4,0,0,0-11.71-6.91C1135.53,550.44,1095.79,561.87,1070.85,584.09Z" transform="translate(-699.25 -301.96)"/><path class="cls-5" d="M1083.91,589.07c-18.46,17.57-22.7,36.56-12.46,47.59,0,0,.07,0,.09,0,22.31,7.93,59.23-3.57,82.47-25.66,18.47-17.58,22.71-36.58,12.44-47.6l-.06,0C1144.07,555.48,1107.13,567,1083.91,589.07Z" transform="translate(-699.25 -301.96)"/><path class="cls-6" d="M751.26,490.24c-9.79,17.31-10.77,35.69-2.19,41.08l0,0c8.61,5.37,23.55-4.33,33.37-21.66,7.8-13.79,10-28.25,6.25-36.29a11,11,0,0,0-4.1-4.81C776,463.21,761.08,472.92,751.26,490.24Z" transform="translate(-699.25 -301.96)"/><path class="cls-7" d="M755.92,493.58c-7.3,13.66-9.42,28-6,35.9l0,0c8,5.26,21.87-4.4,31.06-21.58,7.3-13.67,9.41-28,6-35.91h0C779,466.73,765.1,476.4,755.92,493.58Z" transform="translate(-699.25 -301.96)"/></svg>