<svg id="Layer_1" data-name="Layer 1" xmlns="http://www.w3.org/2000/svg" viewBox="0 0 772.42 500.89"><defs><style>.cls-1,.cls-11,.cls-13,.cls-3,.cls-5,.cls-7,.cls-9{fill:#a67c52;}.cls-1{stroke:#a67c52;stroke-width:3.47px;}.cls-1,.cls-10,.cls-11,.cls-12,.cls-13,.cls-2,.cls-3,.cls-4,.cls-5,.cls-6,.cls-7,.cls-8,.cls-9{stroke-miterlimit:10;}.cls-10,.cls-12,.cls-2,.cls-4,.cls-6,.cls-8{fill:#603813;}.cls-10,.cls-11,.cls-12,.cls-13,.cls-2,.cls-3,.cls-4,.cls-5,.cls-6,.cls-7,.cls-8,.cls-9{stroke:#603813;}.cls-2,.cls-3{stroke-width:4.68px;}.cls-4,.cls-5{stroke-width:6.71px;}.cls-6,.cls-7{stroke-width:7.02px;}.cls-8,.cls-9{stroke-width:7.93px;}.cls-10,.cls-11{stroke-width:4.88px;}.cls-12,.cls-13{stroke-width:4.89px;}</style></defs><title>meteor6</title><path class="cls-1" d="M891.16,357.58c34.23,13.58,62.54-45.32,130.39-60.74,45.55-10.35,94.78,2.1,127.84,25.79,22.45,16.09,34.28,36,57.95,75.72,21.85,36.69,35.16,59,46,93.18,8.33,26.17,10.71,45.1,25.57,50.76,16.89,6.42,29.81-11.94,46-5.83,21,7.92,24.39,48.19,23,69.06-.48,7.32-4.22,53-41.76,80.71-20.42,15.1-40.89,17.54-71.59,20.8-86.58,9.2-127.09-18.38-153.4,6.65-15.8,15-4.11,27.76-22.16,48.26-27,30.74-77.09,29.17-104.82,28.29-20-.63-51.49-1.62-84.38-19.14-60.12-32-85.22-98.05-98.86-134-20.86-54.9-14.29-78.08-37.5-90.69C705,531,680.32,557.8,636.34,542.29c-5.39-1.9-44.15-16.17-54.55-49.09C570.37,457,600.32,421,621.85,395a209.47,209.47,0,0,1,69.88-54.92c34.58-16.43,63.48-18,98-20,45.33-2.53,61.7,5.33,67.33,8.33C878.78,340,876.63,351.81,891.16,357.58Z" transform="translate(-577.54 -291.43)"/><path class="cls-2" d="M1242.43,664.17c-20.2,9-32.33,1.75-27.1-16.25,0,0,0,0,0-.07,5.27-18,25.94-40,46.18-49,16.09-7.18,27.06-4,28.22,6.63a25.06,25.06,0,0,1-1.14,9.69C1283.34,633.17,1262.67,655.12,1242.43,664.17Z" transform="translate(-577.54 -291.43)"/><path class="cls-3" d="M1245,654.21c-15.53,6.35-26.31,3.11-27.72-6.93,0,0,0,0,0-.07,4.69-16.82,24.32-36.93,43.84-44.93,15.53-6.34,26.31-3.11,27.71,7,0,0,0,0,0,0C1284.17,626.1,1264.53,646.23,1245,654.21Z" transform="translate(-577.54 -291.43)"/><path class="cls-4" d="M1080.42,395.7c-29.57-13.18-42.89-36.92-29.76-53.05,0,0,0,0,.06-.07,13.2-16.12,47.91-18.5,77.53-5.32,23.55,10.5,36.79,27.68,34.57,42.39a21.83,21.83,0,0,1-4.87,10.72C1144.75,406.5,1110,408.88,1080.42,395.7Z" transform="translate(-577.54 -291.43)"/><path class="cls-5" d="M1087.28,386.4c-22.52-10.85-35.48-27.93-33.81-42.16l0-.06c12-15.32,44.71-16.68,73-3.05,22.52,10.86,35.49,27.94,33.8,42.18l0,0C1148.29,398.67,1115.58,400,1087.28,386.4Z" transform="translate(-577.54 -291.43)"/><path class="cls-6" d="M706.22,464.65c31-19,47.4-47.64,36.68-64.06,0,0,0,0,0-.06-10.8-16.41-44.72-14.3-75.76,4.69-24.69,15.12-40.12,36.36-40,52.68a20.81,20.81,0,0,0,3.32,11.44C641.26,485.74,675.17,483.63,706.22,464.65Z" transform="translate(-577.54 -291.43)"/><path class="cls-7" d="M700.73,455.08c23.71-15.36,38.86-36.45,39.18-52.3,0,0,0,0,0-.07-9.74-15.65-41.81-12.67-71.63,6.65-23.72,15.38-38.87,36.47-39.17,52.33,0,0,0,0,0,0C638.84,477.38,670.92,474.41,700.73,455.08Z" transform="translate(-577.54 -291.43)"/><path class="cls-8" d="M870.33,724.59c-29.23-22.84-29.78-48.45-1.24-57.22l.12,0c28.64-8.74,75.59,2.73,104.88,25.6,23.29,18.2,28.37,38.14,15.07,49.94a37.17,37.17,0,0,1-13.94,7.32C946.58,758.93,899.63,747.46,870.33,724.59Z" transform="translate(-577.54 -291.43)"/><path class="cls-9" d="M885.87,719.26c-21.68-18.1-26.5-37.84-14.24-49.43,0,0,.08,0,.1,0,26.53-8.5,70.13,3.06,97.41,25.81,21.68,18.12,26.5,37.86,14.21,49.45l-.08,0C956.75,753.58,913.12,742,885.87,719.26Z" transform="translate(-577.54 -291.43)"/><path class="cls-10" d="M791.16,384.52c-18.35-18.69-13.22-28.65,11.46-22.26l.1,0c24.75,6.43,59.72,26.82,78.12,45.54,14.62,14.89,14.34,24.24,1.16,24.2a52.58,52.58,0,0,1-12.71-2C844.53,423.63,809.56,403.24,791.16,384.52Z" transform="translate(-577.54 -291.43)"/><path class="cls-11" d="M804.72,387.78c-13.37-14.3-12.91-23.48-.61-23.72l.09,0c23,5.8,55.29,25.08,72.11,43.07,13.36,14.31,12.91,23.49.58,23.72l-.07,0C853.81,425.05,821.51,405.76,804.72,387.78Z" transform="translate(-577.54 -291.43)"/><path class="cls-12" d="M1049.13,639.06c-15.84,18.78-10.53,30.16,11.85,25.44l.09,0c22.45-4.77,53.5-23.88,69.37-42.69,12.61-15,11.81-25.22-.34-26.39a38.72,38.72,0,0,0-11.61,1C1096.05,601.14,1065,620.25,1049.13,639.06Z" transform="translate(-577.54 -291.43)"/><path class="cls-13" d="M1061.43,636.73c-11.49,14.44-10.54,24.53.82,25.93l.08,0c20.88-4.23,49.51-22.38,64-40.53,11.48-14.44,10.53-24.53-.84-25.93l-.06,0C1104.52,600.43,1075.87,618.58,1061.43,636.73Z" transform="translate(-577.54 -291.43)"/></svg>