<svg id="Layer_1" data-name="Layer 1" xmlns="http://www.w3.org/2000/svg" viewBox="0 0 432.01 444.14"><defs><style>.cls-1,.cls-3{fill:gray;}.cls-2{fill:#999;}.cls-3,.cls-5{stroke:#231f20;stroke-linecap:round;stroke-miterlimit:10;}.cls-3{stroke-width:4px;}.cls-4{fill:#b3b3b3;}.cls-5{fill:none;stroke-width:0.25px;}</style></defs><title>moon</title><path class="cls-1" d="M368.42,577.44A58.84,58.84,0,0,1,344.13,572c-23.64-10.83-36.21-34.19-28-52.08,5.24-11.45,17.74-18.28,33.44-18.28a58.84,58.84,0,0,1,24.3,5.48c11.49,5.27,20.73,13.62,26,23.51s5.94,20,2,28.57C396.62,570.6,384.12,577.44,368.42,577.44Z" transform="translate(-224.3 -137.07)"/><path d="M349.56,500.59v2h0A57.85,57.85,0,0,1,373.44,508c23.14,10.6,35.48,33.37,27.52,50.76-5.08,11.08-17.24,17.7-32.54,17.7a57.86,57.86,0,0,1-23.88-5.4c-23.14-10.6-35.48-33.37-27.51-50.76,5.07-11.08,17.24-17.69,32.53-17.69v-2m0,0c-15.4,0-28.79,6.72-34.35,18.86-8.44,18.42,4.32,42.33,28.5,53.41a59.62,59.62,0,0,0,24.71,5.58c15.4,0,28.79-6.73,34.35-18.87,8.44-18.42-4.32-42.33-28.5-53.41a59.41,59.41,0,0,0-24.71-5.57Z" transform="translate(-224.3 -137.07)"/><path class="cls-1" d="M254.4,267.69a11.37,11.37,0,0,1-7.63-2.51c-8.33-7.14-2.91-27.18,12.09-44.67,11.08-12.91,24.69-21.26,34.68-21.26a11.33,11.33,0,0,1,7.63,2.51c3.93,3.37,4.91,9.81,2.75,18.12-2.23,8.56-7.5,18-14.84,26.55C278,259.34,264.39,267.69,254.4,267.69Z" transform="translate(-224.3 -137.07)"/><path d="M293.54,198.25v2a10.36,10.36,0,0,1,7,2.27c3.57,3.06,4.46,9.3,2.43,17.11-2.19,8.41-7.39,17.7-14.63,26.15-10.73,12.5-24.36,20.91-33.92,20.91a10.41,10.41,0,0,1-7-2.27c-7.78-6.67-2.19-26.48,12.2-43.26,10.73-12.5,24.36-20.91,33.92-20.91v-2m0,0c-9.93,0-23.87,8.12-35.44,21.61-15.38,17.93-20.75,38.56-12,46.08a12.38,12.38,0,0,0,8.28,2.75c9.93,0,23.87-8.13,35.44-21.61,15.38-17.94,20.74-38.57,12-46.08a12.34,12.34,0,0,0-8.28-2.75Z" transform="translate(-224.3 -137.07)"/><path class="cls-2" d="M623.24,450.93a7.25,7.25,0,0,1-3.44-.81c-7.19-3.79-6.26-20.29,2-36,7-13.25,17.55-22.86,25.14-22.86a7.32,7.32,0,0,1,3.43.8c7.2,3.79,6.27,20.3-2,36C641.4,441.31,630.82,450.93,623.24,450.93Z" transform="translate(-224.3 -137.07)"/><path d="M647,392.22h0a6.29,6.29,0,0,1,3,.69c3,1.59,4.59,6,4.32,12.18-.29,6.78-2.7,14.77-6.78,22.51-7.72,14.66-18,22.33-24.25,22.33a6.29,6.29,0,0,1-3-.69c-3-1.59-4.59-6-4.33-12.19.3-6.77,2.7-14.76,6.78-22.5,7.73-14.66,18-22.33,24.26-22.33m0-2c-7.87,0-18.64,9.37-26,23.39-8.71,16.54-9.43,33.28-1.61,37.4a8.28,8.28,0,0,0,3.9.92c7.87,0,18.63-9.37,26-23.4,8.71-16.53,9.44-33.27,1.62-37.39a8.31,8.31,0,0,0-3.9-.92Z" transform="translate(-224.3 -137.07)"/><path class="cls-2" d="M566,199.61c-7.09,0-16-2.52-24.3-6.92-15.75-8.29-25.85-21.38-22.06-28.57,1.67-3.16,5.84-4.89,11.75-4.89,7.09,0,16,2.52,24.3,6.92,15.74,8.3,25.84,21.38,22,28.58C576.08,197.88,571.91,199.61,566,199.61Z" transform="translate(-224.3 -137.07)"/><path d="M531.39,158.23v2c6.93,0,15.62,2.48,23.83,6.81,16.85,8.87,24.79,21.24,21.64,27.22-1.48,2.81-5.34,4.35-10.86,4.35-6.94,0-15.62-2.48-23.83-6.8-16.85-8.88-24.79-21.25-21.64-27.23,1.48-2.81,5.33-4.35,10.86-4.35v-2m0,0c-6.08,0-10.72,1.79-12.63,5.42-4.12,7.82,5.94,21.22,22.47,29.93,8.85,4.66,17.76,7,24.77,7,6.07,0,10.71-1.78,12.63-5.42,4.11-7.81-6-21.21-22.48-29.92-8.85-4.67-17.76-7-24.76-7Z" transform="translate(-224.3 -137.07)"/><ellipse class="cls-3" cx="213.18" cy="222.07" rx="211.18" ry="220.07"/><path class="cls-4" d="M382.76,247.33c-10.43,0-17.53-3-19-7.89-2.41-8.14,11.38-19.72,30.12-25.28a71.89,71.89,0,0,1,20-3.12c10.43,0,17.53,3,19,7.89,1.15,3.87-1.25,8.61-6.75,13.35-5.71,4.91-14,9.15-23.36,11.93A71.94,71.94,0,0,1,382.76,247.33Z" transform="translate(-224.3 -137.07)"/><path d="M413.91,210v2h0c9.81,0,16.72,2.75,18,7.18,2,6.79-9.34,18.06-29.45,24a70.93,70.93,0,0,1-19.74,3.08c-9.82,0-16.73-2.75-18-7.18-2-6.79,9.34-18.06,29.44-24A71.05,71.05,0,0,1,413.91,212v-2m0,0a72.77,72.77,0,0,0-20.32,3.17C374,219,360.18,230.9,362.8,239.72c1.66,5.58,9.47,8.61,20,8.61a73,73,0,0,0,20.31-3.16c19.62-5.82,33.41-17.7,30.79-26.52-1.65-5.58-9.47-8.61-19.95-8.61Z" transform="translate(-224.3 -137.07)"/><path class="cls-4" d="M521,517.42c-3.46,0-6-.94-7.56-2.79-2.64-3.16-2.11-9,1.47-15.94,3.76-7.34,10.38-15.19,18.65-22.11,11.72-9.81,24.53-15.91,33.43-15.91,3.46,0,6,.94,7.56,2.8,5.66,6.75-3.56,24.18-20.12,38C542.73,511.33,529.92,517.42,521,517.42Z" transform="translate(-224.3 -137.07)"/><path d="M567,461.67h0c3.15,0,5.44.82,6.79,2.44,2.38,2.84,1.8,8.24-1.58,14.84-3.71,7.22-10.24,15-18.41,21.8-11.38,9.52-24.25,15.67-32.79,15.67-3.15,0-5.43-.82-6.79-2.44-2.37-2.83-1.8-8.24,1.59-14.84,3.7-7.21,10.24-15,18.4-21.79,11.38-9.53,24.25-15.68,32.79-15.68m0-2c-8.77,0-21.84,5.91-34.07,16.14-17.3,14.49-26.36,32.15-20.24,39.46,1.79,2.14,4.69,3.15,8.32,3.15,8.77,0,21.85-5.9,34.07-16.14,17.3-14.48,26.36-32.15,20.24-39.46-1.79-2.14-4.68-3.15-8.32-3.15Z" transform="translate(-224.3 -137.07)"/><path class="cls-4" d="M300.15,343.92c-8.76,0-15.57-2.4-15.84-5.6-.14-1.69,1.67-3.6,5-5.23a40.14,40.14,0,0,1,13.93-3.5c1.44-.12,2.87-.18,4.27-.18,8.76,0,15.57,2.41,15.84,5.61s-7.41,7.75-18.91,8.72C303,343.86,301.55,343.92,300.15,343.92Z" transform="translate(-224.3 -137.07)"/><path d="M307.48,330.41h0c9.43,0,14.68,2.72,14.84,4.69.11,1.21-1.63,2.87-4.41,4.25a38.93,38.93,0,0,1-13.58,3.39c-1.41.12-2.81.18-4.18.18-9.43,0-14.68-2.72-14.84-4.68-.11-1.21,1.63-2.88,4.41-4.26a39.09,39.09,0,0,1,13.58-3.39c1.4-.12,2.81-.18,4.18-.18m0-2c-1.41,0-2.86.06-4.35.19-11.32,1-20.2,5.35-19.82,9.8.33,3.88,7.53,6.52,16.84,6.52,1.4,0,2.86-.06,4.35-.18,11.32-1,20.19-5.35,19.82-9.81-.33-3.87-7.53-6.52-16.84-6.52Z" transform="translate(-224.3 -137.07)"/><path class="cls-4" d="M462.42,407.05a73.59,73.59,0,0,1-26.74-5.6c-22-8.79-36.41-24.78-32.08-35.64,2.38-5.95,10-9.36,21.07-9.36a73.59,73.59,0,0,1,26.74,5.6c22,8.8,36.41,24.78,32.07,35.65C481.11,403.64,473.43,407.05,462.42,407.05Z" transform="translate(-224.3 -137.07)"/><path d="M424.67,357.45h0A73.68,73.68,0,0,1,451,363c10.63,4.25,19.76,10.3,25.73,17,5.63,6.38,7.69,12.52,5.79,17.29-2.18,5.47-9.71,8.73-20.14,8.73a73.47,73.47,0,0,1-26.37-5.53c-21.14-8.44-35.58-24.17-31.52-34.34,2.18-5.46,9.71-8.73,20.14-8.73m0-2c-11,0-19.38,3.43-22,10-4.54,11.39,10.07,27.93,32.64,36.94a74.83,74.83,0,0,0,27.11,5.67c11,0,19.37-3.42,22-10,4.55-11.4-10.06-27.93-32.63-36.94a74.9,74.9,0,0,0-27.11-5.68Z" transform="translate(-224.3 -137.07)"/><path class="cls-4" d="M557.48,273.69c-4.63,0-11.08-2.12-17.24-5.68a42.56,42.56,0,0,1-12-9.88c-2.49-3.17-3.37-5.94-2.41-7.6.72-1.24,2.54-1.93,5.12-1.93,4.63,0,11.08,2.13,17.24,5.69a42.39,42.39,0,0,1,12,9.88c2.49,3.17,3.37,5.94,2.41,7.6C561.88,273,560.06,273.69,557.48,273.69Z" transform="translate(-224.3 -137.07)"/><path d="M530.92,249.61h0c4.47,0,10.73,2.07,16.74,5.54a41.76,41.76,0,0,1,11.74,9.63c2.16,2.75,3.05,5.24,2.33,6.49-.52.91-2.07,1.42-4.25,1.42-4.47,0-10.73-2.07-16.74-5.54C530,261,525.26,253.47,526.67,251c.52-.91,2.07-1.42,4.25-1.42m0-2c-2.89,0-5,.78-6,2.42-2.47,4.27,4.16,12.71,14.8,18.85,6.56,3.78,13.11,5.81,17.74,5.81,2.89,0,5-.78,6-2.42,2.47-4.27-4.16-12.71-14.8-18.85-6.55-3.79-13.11-5.81-17.74-5.81Z" transform="translate(-224.3 -137.07)"/><path class="cls-4" d="M351.39,485.5c-1.89,0-3.83-.07-5.76-.23-8.79-.72-16.91-3-22.86-6.37-5.72-3.26-8.7-7.12-8.39-10.88.56-6.94,12.55-12.17,27.88-12.17,1.9,0,3.83.08,5.76.23,17.59,1.44,31.91,9.34,31.26,17.25C378.71,480.27,366.72,485.5,351.39,485.5Z" transform="translate(-224.3 -137.07)"/><path d="M342.26,454.85v2c1.87,0,3.78.07,5.68.23,8.65.71,16.62,2.93,22.45,6.25,5.28,3,8.16,6.62,7.89,9.92-.51,6.31-12.33,11.26-26.89,11.26-1.86,0-3.78-.08-5.68-.24-18.81-1.54-30.88-9.6-30.34-16.17.52-6.31,12.33-11.25,26.89-11.25v-2m0,0c-15.8,0-28.25,5.41-28.88,13.09-.71,8.61,13.7,16.81,32.17,18.32q3,.25,5.84.25c15.8,0,28.26-5.42,28.89-13.1.7-8.61-13.71-16.81-32.18-18.32-2-.17-3.93-.24-5.84-.24Z" transform="translate(-224.3 -137.07)"/><path d="M425.18,351.22c-8.92-1.06-20.06-1.91-26.31,6-5.29,6.73-3.81,17,.34,23.94a25.32,25.32,0,0,0,9.88,9.41c.85.45,1.61-.85.75-1.3a24.35,24.35,0,0,1-12.57-17.79c-.63-4.16-.19-8.83,2.13-12.43,2.17-3.38,5.92-5.43,9.74-6.38,5.24-1.31,10.75-.62,16,0,.95.12.95-1.38,0-1.5Z" transform="translate(-224.3 -137.07)"/><path d="M478.13,374.73c6.56,4.49,10,12.31,11.07,20,.51,3.75.45,8.14-2,11.25-2.64,3.34-7.56,4.24-11.51,5a54.33,54.33,0,0,1-16.35.47c-1-.11-.95,1.39,0,1.5a55.48,55.48,0,0,0,15.81-.36c4.26-.7,9.43-1.65,12.57-4.89,2.83-2.93,3.45-7.24,3.18-11.16a35.85,35.85,0,0,0-3.15-12.28,26,26,0,0,0-8.85-10.79c-.8-.55-1.55.75-.76,1.29Z" transform="translate(-224.3 -137.07)"/><path d="M319.66,327.66c2.18,1.37,4.67,2.33,6.66,4,1.72,1.43,3.2,3.6,2.73,5.94-.76,3.83-5.65,5.32-8.9,6.16a.75.75,0,0,0,.4,1.45c3.88-1,9.19-2.88,10-7.42,1.09-6.21-6-8.83-10.12-11.43-.82-.52-1.58.78-.76,1.3Z" transform="translate(-224.3 -137.07)"/><path d="M321,454.79c-7.27.21-11.71,6.88-12.26,13.56-.28,3.43.12,7.28,2.36,10s6,4.5,9.26,5.94a58.12,58.12,0,0,0,13.08,4c.95.17,1.35-1.27.4-1.45A56.74,56.74,0,0,1,321.11,483c-3.65-1.62-8.36-3.62-10-7.55s-1.18-8.94.56-12.62a11,11,0,0,1,9.35-6.57.75.75,0,0,0,0-1.5Z" transform="translate(-224.3 -137.07)"/><path d="M357.63,454.6c8.08.4,16.61,2.95,21.72,9.61a17.91,17.91,0,0,1,3.9,10.83,11.1,11.1,0,0,1-1.59,6.06,10.72,10.72,0,0,1-4.36,3.58c-4.44,2.19-9.76,3.09-14.64,3.57-1,.09-1,1.6,0,1.5a49.64,49.64,0,0,0,14.24-3.25c4.05-1.7,7-4.63,7.66-9.08,1.34-8.67-4.5-16.8-11.94-20.64a36.36,36.36,0,0,0-15-3.68c-1-.05-1,1.45,0,1.5Z" transform="translate(-224.3 -137.07)"/><path d="M555.22,458.66a79,79,0,0,1,13.83-2.27c4.16-.31,8.55-.55,11.12,3.36,2.38,3.63,1.92,8.24,1.16,12.3a56,56,0,0,1-4.14,12.89c-.41.87.89,1.64,1.29.76a57.4,57.4,0,0,0,3.76-10.78c.87-3.66,1.59-7.55,1-11.3a11,11,0,0,0-4.52-7.46c-3-2-7-1.5-10.35-1.22a82.63,82.63,0,0,0-13.52,2.27.75.75,0,0,0,.4,1.45Z" transform="translate(-224.3 -137.07)"/><path d="M290.63,326.44c-5.28,1.67-11.46,3.9-13.1,9.83a7.77,7.77,0,0,0,1.15,7c1.59,2,4.07,2.68,6.48,3,2.94.39,6.13.29,8.74,1.9.83.51,1.58-.79.76-1.29-2.53-1.56-5.52-1.67-8.39-2s-6.14-1-7.24-4,.31-6.31,2.48-8.35c2.62-2.46,6.18-3.57,9.52-4.63.92-.29.53-1.74-.4-1.44Z" transform="translate(-224.3 -137.07)"/><path d="M518.65,481.58a141.45,141.45,0,0,0-9.71,16.34c-2.42,4.83-4.36,10.25-3.09,15.69a12.63,12.63,0,0,0,10,9.66c5.55,1.17,11.54,0,16.82-1.78,6.27-2.16,12-5.5,17.73-8.85a.72.72,0,0,0-.72-1.24c-9.18,5.39-19.29,11.32-30.33,10.86-5.31-.23-10.1-2.67-11.78-8s.15-10.53,2.45-15.22a137.47,137.47,0,0,1,9.92-16.74c.53-.77-.73-1.49-1.25-.73Z" transform="translate(-224.3 -137.07)"/><path d="M378.3,214.82A126,126,0,0,0,363.7,224c-3.83,2.82-7.56,6.28-8.79,11-2.86,11.14,9.46,16.28,18.31,17.57,6,.88,12.16.58,18.23.23.84-.05.85-1.36,0-1.31-9.59.55-20.08,1.14-28.83-3.58-4.38-2.37-7.55-6.35-6.66-11.58.83-4.81,4.47-8.34,8.23-11.13A126.29,126.29,0,0,1,379,216c.74-.4.08-1.53-.66-1.13Z" transform="translate(-224.3 -137.07)"/><path d="M399.76,209.72q8.87-1.42,17.77-2.49a24.33,24.33,0,0,1,8.34,0,15.39,15.39,0,0,1,6.15,3,14.86,14.86,0,0,1,5.63,11.92,15.78,15.78,0,0,1-6.85,12.57,59.4,59.4,0,0,1-7.45,4.32l-9,4.74c-.75.39-.09,1.52.66,1.13l8.77-4.62a64.73,64.73,0,0,0,7.5-4.31,17.32,17.32,0,0,0,7.57-12.32,16.12,16.12,0,0,0-4.44-13,17.08,17.08,0,0,0-13.52-5c-3.46.2-6.92.75-10.34,1.22q-5.6.75-11.15,1.64c-.83.14-.48,1.4.35,1.27Z" transform="translate(-224.3 -137.07)"/><path d="M539.35,244.79a41.33,41.33,0,0,0-9.45-1.32,34.69,34.69,0,0,0-4.78.2,6.3,6.3,0,0,0-3.2,1.1c-1.9,1.49-1.76,4.52-1.5,6.68a17.32,17.32,0,0,0,2.35,6.9,17.06,17.06,0,0,0,5.92,5.93.65.65,0,0,0,.66-1.13A16,16,0,0,1,521.62,249c.06-1.62.36-3.13,2-3.73a15,15,0,0,1,4.57-.52A39.38,39.38,0,0,1,539,246.05a.65.65,0,0,0,.35-1.26Z" transform="translate(-224.3 -137.07)"/><path d="M544.66,275.92c2.78,2.27,6.42,3.14,9.88,3.75a20.35,20.35,0,0,0,9.44-.14,9,9,0,0,0,6.07-5.84,12,12,0,0,0-1.48-9.55c-2.24-3.69-5.86-6.24-9.33-8.66-.7-.48-1.35.65-.66,1.13,5,3.53,11.24,8.13,10.54,15.1-.68,6.78-8,7.65-13.42,6.83-3.44-.52-7.36-1.3-10.11-3.55-.65-.53-1.58.39-.93.93Z" transform="translate(-224.3 -137.07)"/><line class="cls-5" x1="34.7" y1="150.93" x2="105.41" y2="80.22"/><line class="cls-5" x1="89.86" y1="312.57" x2="160.57" y2="241.86"/><line class="cls-5" x1="50.86" y1="312.57" x2="148.7" y2="213.93"/><line class="cls-5" x1="37.86" y1="281.57" x2="108.57" y2="210.86"/><line class="cls-5" x1="66.86" y1="168.57" x2="119.7" y2="116.93"/><line class="cls-5" x1="34.86" y1="177.57" x2="122.7" y2="89.93"/><line class="cls-5" x1="139.7" y1="304.93" x2="180.7" y2="263.93"/><line class="cls-5" x1="156.7" y1="180.93" x2="253.13" y2="84.4"/><line class="cls-5" x1="180.29" y1="187.04" x2="289.7" y2="77.93"/><line class="cls-5" x1="211.7" y1="193.93" x2="274.7" y2="130.93"/><line class="cls-5" x1="134.29" y1="401.54" x2="232.13" y2="302.9"/><line class="cls-5" x1="270.7" y1="226.93" x2="332.7" y2="164.93"/><line class="cls-5" x1="231.7" y1="72.93" x2="276.22" y2="29.21"/><line class="cls-5" x1="281.22" y1="253.21" x2="383.7" y2="150.93"/><line class="cls-5" x1="167.29" y1="407.53" x2="265.13" y2="308.89"/><line class="cls-5" x1="217.29" y1="389.53" x2="296.7" y2="309.93"/><line class="cls-5" x1="302.96" y1="270.07" x2="378.7" y2="195.93"/><line class="cls-5" x1="330.96" y1="275.07" x2="375.47" y2="231.34"/><line class="cls-5" x1="345.96" y1="300.07" x2="390.47" y2="256.34"/></svg>