<svg id="Layer_1" data-name="Layer 1" xmlns="http://www.w3.org/2000/svg" viewBox="0 0 519.97 515.24"><defs><style>.cls-1{fill:#fff622;}.cls-2{fill:#fcee21;}</style></defs><title>star2</title><path class="cls-1" d="M654.22,1217.12a15.14,15.14,0,0,1-10.5-4.27L523.84,1100.12a16.54,16.54,0,0,0-19.28-2.44l-144.24,79.17a15.53,15.53,0,0,1-7.52,2,15.8,15.8,0,0,1-13.17-7.4,15.13,15.13,0,0,1-.83-14.82L409,1007.78a16.5,16.5,0,0,0-3.63-19.09L285.46,876a15.54,15.54,0,0,1,10.46-26.86,17.05,17.05,0,0,1,2.13.14L461.29,870a16.18,16.18,0,0,0,2.09.13,16.58,16.58,0,0,0,14.94-9.48l70.16-148.84a15.14,15.14,0,0,1,14-8.91,15.44,15.44,0,0,1,15.34,12.63l30.73,161.66a16.5,16.5,0,0,0,14.16,13.31L785.9,911.21a15.53,15.53,0,0,1,5.52,29L647.17,1019.4a16.49,16.49,0,0,0-8.29,17.58l30.73,161.65a15.08,15.08,0,0,1-3.16,12.7A16,16,0,0,1,654.22,1217.12Z" transform="translate(-280.01 -702.38)"/><path class="cls-2" d="M562.44,702.38v1h0a14.75,14.75,0,0,1,14.85,12.23L608,877.26A17,17,0,0,0,622.6,891l163.24,20.74a15,15,0,0,1,5.34,28.08L646.93,1019a17,17,0,0,0-8.54,18.1l30.73,161.66a14.63,14.63,0,0,1-3,12.28,15.55,15.55,0,0,1-11.85,5.61,14.63,14.63,0,0,1-10.16-4.14L524.18,1099.76a17,17,0,0,0-19.86-2.52l-144.24,79.17a15,15,0,0,1-7.28,1.93,15.29,15.29,0,0,1-12.74-7.17,14.65,14.65,0,0,1-.81-14.34L409.41,1008a17,17,0,0,0-3.74-19.67L285.8,875.6a14.72,14.72,0,0,1-3.7-16.44,14.88,14.88,0,0,1,13.82-9.55,18.26,18.26,0,0,1,2.07.13l163.23,20.74a17.39,17.39,0,0,0,2.16.13,17.07,17.07,0,0,0,15.39-9.77L548.93,712a14.65,14.65,0,0,1,13.51-8.62v-1m0,0a15.66,15.66,0,0,0-14.41,9.2L477.87,860.42a16,16,0,0,1-14.49,9.19,17.4,17.4,0,0,1-2-.12L298.11,848.75a18.28,18.28,0,0,0-2.19-.14c-14,0-21.57,17.6-10.81,27.72L405,989.05a16,16,0,0,1,3.52,18.51L338.35,1156.4c-5.37,11.39,3.61,22.94,14.45,22.94a16,16,0,0,0,7.76-2l144.25-79.17a16,16,0,0,1,18.69,2.37l119.87,112.72a15.64,15.64,0,0,0,10.85,4.41c9.26,0,17.95-8.22,15.88-19.08l-30.72-161.65a16,16,0,0,1,8-17.05l144.25-79.17c13.61-7.48,9.71-28-5.7-30L622.73,890A16,16,0,0,1,609,877.07L578.28,715.42a15.84,15.84,0,0,0-15.84-13Z" transform="translate(-280.01 -702.38)"/></svg>