<svg id="Layer_1" data-name="Layer 1" xmlns="http://www.w3.org/2000/svg" viewBox="0 0 762.29 761.65"><defs><style>.cls-1{fill:#ccc;}.cls-2,.cls-8{fill:#998675;stroke:#998675;}.cls-2,.cls-3,.cls-4,.cls-5,.cls-6,.cls-7,.cls-8{stroke-linecap:round;}.cls-2,.cls-3,.cls-4,.cls-5,.cls-6,.cls-7,.cls-8,.cls-9{stroke-miterlimit:10;}.cls-2,.cls-4,.cls-5,.cls-7{opacity:0.75;}.cls-3,.cls-9{fill:#c7b299;stroke:#c7b299;}.cls-4{fill:#736357;stroke:#736357;stroke-width:1.93px;}.cls-5{fill:#666;stroke:#666;}.cls-6{fill:gray;stroke:gray;stroke-width:1.24px;opacity:0.91;}.cls-7{fill:#c69c6d;stroke:#c69c6d;}.cls-9{stroke-width:1.3px;}</style></defs><title>Venus</title><path class="cls-1" d="M1012.88,857.06c-4.21,0-8.48-.07-12.69-.21l-.49,0,0,0A378.42,378.42,0,0,1,920,845.51c-11.29-2.85-22.56-6.26-33.51-10.13A375.57,375.57,0,0,1,843.2,817l-.44-.21a376.4,376.4,0,0,1-154.15-142.4,384.53,384.53,0,0,1-18.55-34.68c-1.18-2.49-2.18-4.69-3.07-6.71a376.63,376.63,0,0,1-27.82-217l.09-.58h0a379.53,379.53,0,0,1,41.31-118.82l.34-.58a379.52,379.52,0,0,1,40.71-59.82l.28-.33A377.92,377.92,0,0,1,1098.5,109.9a377.44,377.44,0,0,1,251.85,198c1.61,3.2,3.16,6.37,4.59,9.42A377.85,377.85,0,0,1,1387.71,428a373.4,373.4,0,0,1,3.26,59.23c-.28,11.59-1.1,23.27-2.43,34.71a380.69,380.69,0,0,1-71.9,182h-.38l-.41,1a379,379,0,0,1-142.12,116A374.83,374.83,0,0,1,1012.88,857.06Z" transform="translate(-631.41 -97.91)"/><path class="cls-1" d="M1012.23,101.91a375.88,375.88,0,0,1,336.33,206.83c1.61,3.2,3.15,6.36,4.57,9.38A374.78,374.78,0,0,1,1389,487.22c-.28,11.53-1.09,23.15-2.42,34.53A378.66,378.66,0,0,1,1315.62,702h-.86l-.73,2.09A374.32,374.32,0,0,1,1252,769.15a378.23,378.23,0,0,1-79.09,50,373,373,0,0,1-160,35.93c-4.19,0-8.44-.07-12.62-.21l-1,0,0,0a376.59,376.59,0,0,1-78.81-11.27c-11.23-2.84-22.44-6.23-33.34-10.08a377.57,377.57,0,0,1-43-18.25l-.07,0-.08,0-.33-.16A374.72,374.72,0,0,1,690.32,673.38a384.39,384.39,0,0,1-18.45-34.5c-1.17-2.49-2.17-4.67-3.06-6.69A374.69,374.69,0,0,1,641.14,416.3l.15-.91A377.52,377.52,0,0,1,682,298.1h0l.62-1.14a377.17,377.17,0,0,1,40.21-59.15h0l.56-.67a377.45,377.45,0,0,1,288.79-135.22h0m0-4A381.43,381.43,0,0,0,720.37,234.56h0A379.26,379.26,0,0,0,679.16,295h0a382.73,382.73,0,0,0-41.94,120.58h0a379,379,0,0,0,28,218.2c1,2.26,2,4.51,3.09,6.76a388.34,388.34,0,0,0,18.64,34.85A378.64,378.64,0,0,0,841.82,818.58c.15.08.31.16.48.23a375.26,375.26,0,0,0,43.47,18.45q16.59,5.87,33.69,10.19a380.13,380.13,0,0,0,80.62,11.42l0,0q6.38.21,12.76.21A381.09,381.09,0,0,0,1317.59,706h.06a382.45,382.45,0,0,0,72.87-183.75q2-17.33,2.45-34.89a374.65,374.65,0,0,0-3.28-59.55,379.86,379.86,0,0,0-32.94-111.36q-2.25-4.77-4.61-9.46a381.17,381.17,0,0,0-339.92-209Z" transform="translate(-631.41 -97.91)"/><path class="cls-2" d="M932.71,149.55c4.45,9-108.73,74-252.79,145.1l-.76.38a379.26,379.26,0,0,1,41.2-60.46h0C838.12,178.43,928.86,141.75,932.71,149.55Z" transform="translate(-631.41 -97.91)"/><path class="cls-3" d="M1168.71,131.55q-23.78,12-48.59,24.25C924.21,252.52,760.21,320.45,753.81,307.5S901.06,205.65,1097,108.93l2-1A381.9,381.9,0,0,1,1168.71,131.55Z" transform="translate(-631.41 -97.91)"/><path class="cls-4" d="M1352.14,307c-71.65,46.33-179.23,106.35-302,167-163.85,80.89-310.4,141-385,159.92a380.6,380.6,0,0,1-15.46-40.5c62-48,196.83-126.38,357.77-205.84,119.85-59.17,230.43-107.19,310.38-136.14A382,382,0,0,1,1352.14,307Z" transform="translate(-631.41 -97.91)"/><path class="cls-5" d="M1145,200.26c7.88,16-171.57,120.66-400.82,233.84-38.65,19.08-76.26,37.18-112.11,54a380.26,380.26,0,0,1,5.17-72.49h0c25.3-12.9,51.51-26.06,78.41-39.34C944.85,263.1,1137.08,184.29,1145,200.26Z" transform="translate(-631.41 -97.91)"/><path class="cls-6" d="M1389.69,427.77a374.65,374.65,0,0,1,3.28,59.55q-.42,17.54-2.45,34.89-34.68,18.27-71.49,36.92C1090.86,674.62,897.41,750.76,886.94,729.19s166-132.66,394.16-248.15C1318.45,462.13,1354.85,444.29,1389.69,427.77Z" transform="translate(-631.41 -97.91)"/><path class="cls-7" d="M1086.27,521.34c8.82,17.88-145.41,112.35-352.09,216.76a379,379,0,0,1-47.29-62.66C901.5,571.24,1077.25,503.09,1086.27,521.34Z" transform="translate(-631.41 -97.91)"/><path class="cls-8" d="M1317.59,706a381,381,0,0,1-317.47,152.86c35.55-18.62,73.29-37.81,112.52-57.18C1186.28,765.32,1256.25,732.77,1317.59,706Z" transform="translate(-631.41 -97.91)"/><path class="cls-9" d="M1106.29,718.7c6.34,13.09-73.65,67.52-186.83,128.75q-17.07-4.32-33.69-10.19a375.26,375.26,0,0,1-43.47-18.45C981.73,748.37,1099.05,703.76,1106.29,718.7Z" transform="translate(-631.41 -97.91)"/></svg>